<svg width="16" height="16" viewBox="0 0 16 16" fill="none" xmlns="http://www.w3.org/2000/svg">
<g clip-path="url(#clip0_204_588)">
<path fill-rule="evenodd" clip-rule="evenodd" d="M16 8C16 12.4183 12.4183 16 8 16C3.58172 16 0 12.4183 0 8C0 3.58172 3.58172 0 8 0C12.4183 0 16 3.58172 16 8ZM14.196 6.50601C13.256 2.92801 9.43598 1.20601 6.61198 2.07801C9.65398 2.67801 12.15 4.12801 14.196 6.50601ZM13.132 7.334C11.998 5.748 10.434 4.692 8.65798 3.94C7.42798 3.418 6.15398 3.104 4.80198 3.266C4.33398 3.322 3.89598 3.456 3.53398 3.76C8.15198 3.876 11.626 5.876 14.014 9.826C14.0148 9.77199 14.0172 9.7167 14.0195 9.66089V9.66086V9.66084V9.66081C14.0287 9.44593 14.0382 9.22332 13.962 9.036C13.9356 8.97165 13.9094 8.90701 13.8832 8.84225C13.6703 8.31728 13.4542 7.78443 13.132 7.334ZM12.182 9.612C10.466 7.112 8.03599 5.714 5.06599 5.246C4.27999 5.122 3.47799 5.156 2.74199 5.532C2.38999 5.712 2.07799 5.942 1.99399 6.43C4.30999 5.792 6.38799 6.356 8.34399 7.49C10.31 8.63 11.846 10.16 12.444 12.512C12.86 12.144 12.934 11.692 12.826 11.272C12.678 10.696 12.51 10.09 12.182 9.612ZM10.72 11.378C9.38401 9.208 7.39201 7.978 4.93201 7.466C4.06201 7.286 3.18801 7.288 2.34401 7.62C1.76601 7.848 1.67801 8.088 1.95001 8.694C3.79801 8.256 5.51801 8.664 7.12801 9.594C8.75001 10.532 9.96001 11.838 10.51 13.694C11.282 13.458 11.382 13.328 11.196 12.61C11.086 12.188 10.948 11.748 10.72 11.378ZM2.21859 10.0609C2.18047 9.96342 2.14234 9.86594 2.10001 9.772C4.65601 8.766 8.98001 11.15 9.50401 14.056C9.40521 14.0655 9.30656 14.0767 9.20808 14.0878L9.20803 14.0878L9.20797 14.0878L9.20791 14.0878L9.20785 14.0878H9.20784H9.20783H9.20782H9.20781C8.95551 14.1162 8.70424 14.1446 8.45401 14.146C8.36401 14.146 8.25401 13.994 8.18601 13.892C7.02601 12.154 5.40201 11.158 3.34401 10.852C3.32601 10.85 3.30802 10.8475 3.29002 10.845C3.27202 10.8425 3.25401 10.84 3.23601 10.838C3.16382 10.828 3.08175 10.8262 2.99964 10.8244C2.81784 10.8204 2.63578 10.8163 2.56001 10.724C2.40522 10.538 2.31193 10.2995 2.21859 10.0609ZM3.10799 11.678C4.19999 13.064 5.58799 13.872 7.36799 14.134C6.68799 12.864 4.29199 11.49 3.10799 11.678Z" fill="white"/>
</g>
<defs>
<clipPath id="clip0_204_588">
<rect width="16" height="16" fill="white"/>
</clipPath>
</defs>
</svg>
