<svg width="16" height="16" viewBox="0 0 16 16" fill="none" xmlns="http://www.w3.org/2000/svg">
<path d="M14.5068 1.72985L1.29418 7.49534C1.16764 7.54863 1.10437 7.69783 1.16764 7.82571C1.18873 7.879 1.22037 7.92163 1.27309 7.94294L4.35216 9.77596C4.38379 9.79727 4.41543 9.82924 4.42597 9.87187L5.83897 14.1134C5.88115 14.2413 6.02877 14.3159 6.15531 14.2733C6.19749 14.2626 6.22912 14.2413 6.26076 14.2093L8.10609 12.2164C8.15881 12.1631 8.24317 12.1525 8.30644 12.1845L10.679 13.4953C10.795 13.5592 10.9532 13.5166 11.0164 13.3994C11.027 13.3887 11.027 13.3674 11.0375 13.3567L14.8442 2.04957C14.8864 1.92168 14.8231 1.77248 14.686 1.72985C14.6227 1.70854 14.5595 1.70854 14.5068 1.72985ZM6.76691 10.8523L6.0815 12.7919L5.09029 9.73333L12.3029 4.18098L6.76691 10.8523Z" fill="white"/>
</svg>
