<svg width="16" height="16" viewBox="0 0 16 16" fill="none" xmlns="http://www.w3.org/2000/svg">
<g clip-path="url(#clip0_204_526)">
<path d="M13.6023 9.51832C13.3603 9.68474 13.0453 9.70554 12.7824 9.57292C12.4804 9.4013 12.3165 9.00085 12.3165 8.45737V6.78534C12.3165 5.98183 11.9989 5.41235 11.4653 5.25633C10.5673 4.9937 9.8957 6.09365 9.638 6.5071L8.04758 9.07886V5.94023C8.02936 5.21733 7.7951 4.78307 7.34738 4.65305C7.05325 4.56724 6.61074 4.60104 6.18125 5.25633L2.62559 10.9589C2.15185 10.0566 1.90456 9.05025 1.90977 8.03091C1.90977 4.59324 4.65851 1.79786 8.04758 1.79786C11.4367 1.79786 14.1932 4.59324 14.1932 8.03091V8.04912C14.1932 8.04912 14.1932 8.06212 14.1932 8.06732C14.227 8.73041 14.011 9.26088 13.6023 9.51832ZM15.5676 8.03091V7.99711C15.5389 3.81053 12.1759 0.411865 8.04758 0.411865C3.91927 0.411865 0.5354 3.82874 0.5354 8.03091C0.5354 12.2331 3.90365 15.65 8.04758 15.65C9.94775 15.65 11.775 14.9219 13.1546 13.6165C13.4331 13.3538 13.4488 12.917 13.1911 12.6361C12.9412 12.3605 12.5169 12.3397 12.2384 12.5893L12.2358 12.5919C9.80199 14.8985 5.9574 14.797 3.64856 12.3657C3.59129 12.3059 3.53663 12.2461 3.48197 12.1837L6.68102 7.04278V9.4143C6.68102 10.5533 7.12353 10.9225 7.49315 11.0317C7.86277 11.1409 8.43282 11.0655 9.0263 10.1008L10.7963 7.2404C10.851 7.14939 10.903 7.06878 10.9525 7.00117V8.45477C10.9525 9.52092 11.3794 10.3712 12.1316 10.7925C12.8266 11.1669 13.67 11.1331 14.3338 10.7041C15.1589 10.1684 15.6092 9.19847 15.5624 8.03091H15.5676Z" fill="white"/>
</g>
<defs>
<clipPath id="clip0_204_526">
<rect width="15.7529" height="16" fill="white" transform="translate(0.123535)"/>
</clipPath>
</defs>
</svg>
