<svg width="16" height="16" viewBox="0 0 16 16" fill="none" xmlns="http://www.w3.org/2000/svg">
<path d="M4.16433 10.7488C7.14685 11.8798 9.68498 12.1001 12.5612 10.3396C12.5401 10.3704 11.9712 11.1894 10.475 11.6092C10.7911 12.029 11.2231 12.5101 11.2231 12.5101C12.1819 12.5101 13.1196 12.2439 13.9309 11.732C14.5631 11.3225 14.9213 10.616 14.8476 9.87889C14.7211 8.61956 14.4156 7.39096 13.9415 6.21357C13.3409 4.67783 11.8974 3.61303 10.2221 3.45944C10.0746 3.4492 9.96928 3.4492 9.90606 3.4492L9.7375 3.613C11.6656 4.1454 12.6245 4.9747 12.6455 5.00543C9.68479 3.55157 6.18675 3.53111 3.20496 4.944C3.20496 4.944 4.15323 4.03278 6.24994 3.55157L6.12351 3.42871C5.90223 3.42871 5.6915 3.4492 5.47026 3.4799C3.92142 3.73585 2.62547 4.76993 2.06703 6.19306C1.58235 7.42166 1.26627 8.71169 1.15038 10.0222C1.08717 10.7184 1.42433 11.4044 2.01436 11.8037C2.79404 12.3054 3.72123 12.5716 4.65896 12.5716C4.65896 12.5716 5.03826 12.0904 5.41759 11.6604C3.99517 11.2508 3.41569 10.4318 3.40515 10.401L3.67284 10.5338C3.83286 10.6133 3.99693 10.6853 4.16433 10.7488ZM5.81797 9.85841C5.1331 9.83792 4.59574 9.27482 4.61683 8.59908C4.63791 7.9643 5.16472 7.45239 5.81797 7.4319C6.50283 7.45239 7.04019 8.01549 7.0191 8.69123C6.98748 9.32604 6.47121 9.83795 5.81797 9.85841ZM10.1168 9.85841C9.43189 9.83792 8.89454 9.27482 8.91562 8.59908C8.9367 7.9643 9.46352 7.45239 10.1168 7.4319C10.8016 7.45239 11.339 8.01549 11.3179 8.69123C11.2969 9.32604 10.77 9.83795 10.1168 9.85841Z" fill="white"/>
</svg>
