<svg width="14" height="16" viewBox="0 0 14 16" fill="none" xmlns="http://www.w3.org/2000/svg">
<g clip-path="url(#clip0_204_560)">
<path fill-rule="evenodd" clip-rule="evenodd" d="M8.37687 5.69952C8.86631 5.45547 9.48908 5.09621 10.1126 4.604C10.2441 4.87701 10.2585 5.11525 10.1907 5.30763C10.1427 5.4432 10.0523 5.56112 9.93335 5.65493C9.80455 5.75632 9.64369 5.83013 9.46588 5.87003C9.12849 5.94603 8.73457 5.90165 8.37687 5.69952ZM8.46172 8.20011L9.10961 8.57435C7.78673 9.31579 7.42711 10.6925 6.99991 12.0335C6.57276 10.6925 6.21308 9.31579 4.89025 8.57435L5.53815 8.20011C5.60082 8.17642 5.65439 8.1335 5.69118 8.07751C5.72797 8.02151 5.74609 7.9553 5.74295 7.88837C5.68359 6.63253 6.02268 6.07717 6.48007 5.72848C6.64412 5.60357 6.82321 5.54085 6.99991 5.54085C7.1766 5.54085 7.35569 5.60357 7.5198 5.72848C7.97719 6.07717 8.31628 6.63253 8.25692 7.88837C8.25378 7.9553 8.2719 8.02151 8.30869 8.07751C8.34548 8.1335 8.39904 8.17642 8.46172 8.20011ZM6.99991 0C7.74881 0.0201067 8.49959 0.165493 9.15116 0.44832C9.60236 0.644427 10.0234 0.903467 10.4046 1.21323C10.5768 1.35307 10.7185 1.48816 10.8747 1.64368C11.2959 1.65824 11.9114 1.19035 12.1971 0.752533C11.7053 2.3648 9.46119 4.26875 7.90753 4.99728C7.90689 4.99701 7.90647 4.99664 7.90599 4.99632C7.62716 4.78341 7.31356 4.67696 6.99991 4.67696C6.68625 4.67696 6.37271 4.78341 6.09388 4.99632C6.0934 4.99659 6.09297 4.99707 6.09233 4.99728C4.53863 4.26875 2.29452 2.3648 1.80273 0.752533C2.08844 1.19035 2.70396 1.65824 3.12513 1.64368C3.28135 1.48821 3.42311 1.35307 3.59521 1.21323C3.97644 0.903467 4.39745 0.644427 4.84865 0.44832C5.50028 0.165493 6.25105 0.0201067 6.99991 0ZM5.62295 5.69952C5.13356 5.45547 4.51073 5.09621 3.88727 4.604C3.7558 4.87701 3.7414 5.11525 3.80908 5.30763C3.85713 5.4432 3.94759 5.56112 4.06647 5.65493C4.19532 5.75632 4.35617 5.83013 4.53399 5.87003C4.87137 5.94603 5.26524 5.90165 5.62295 5.69952Z" fill="white"/>
<path fill-rule="evenodd" clip-rule="evenodd" d="M10.7956 4.0009C11.1389 3.6545 11.4413 3.27109 11.6845 2.92896L11.808 3.16144C12.2057 3.95701 12.4123 4.74938 12.4123 5.64111L12.4114 7.05616L12.4189 7.7897C12.4477 9.59055 12.8374 11.4126 13.72 13.08L11.8733 11.5908L10.5665 13.7113L9.19374 12.419L7.00003 15.9789L4.80632 12.419L3.43358 13.7114L2.12686 11.5909L0.280029 13.08C1.1627 11.4126 1.55235 9.59061 1.5812 7.78976L1.58867 7.05621L1.58782 5.64117C1.58782 4.74938 1.79438 3.95701 2.19214 3.16149L2.3156 2.92901C2.5588 3.27114 2.8612 3.6545 3.20451 4.00095L3.09731 4.22362C2.88904 4.6561 2.82008 5.13967 2.98232 5.59957C3.08691 5.89578 3.27779 6.14981 3.52387 6.34373C3.7628 6.53205 4.04558 6.65898 4.34163 6.72565C4.53448 6.76906 4.73096 6.78693 4.92616 6.78085C4.88062 7.03903 4.86072 7.30682 4.85944 7.57967L3.11736 8.58586L4.46168 9.33941C4.56913 9.39965 4.67142 9.46867 4.7675 9.54575C5.87582 10.5408 6.54216 13.4847 7.00008 14.9226C7.45806 13.4847 8.12435 10.5408 9.23272 9.54575C9.32879 9.46865 9.43108 9.39964 9.53854 9.33941L10.8829 8.58586L9.14072 7.57967C9.13944 7.30682 9.11955 7.03903 9.074 6.78085C9.2692 6.78693 9.46568 6.76906 9.65854 6.72565C9.95459 6.65898 10.2374 6.53205 10.4763 6.34373C10.7223 6.14981 10.9133 5.89578 11.0178 5.59957C11.1801 5.13967 11.1111 4.65616 10.9029 4.22362L10.7957 4.00095L10.7956 4.0009Z" fill="white"/>
</g>
<defs>
<clipPath id="clip0_204_560">
<rect width="13.44" height="16" fill="white" transform="translate(0.280029)"/>
</clipPath>
</defs>
</svg>
