<svg width="16" height="16" viewBox="0 0 16 16" fill="none" xmlns="http://www.w3.org/2000/svg">
<path fill-rule="evenodd" clip-rule="evenodd" d="M7.99992 1.08337C4.17995 1.08337 1.08325 4.18007 1.08325 8.00004C1.08325 9.43195 1.51838 10.7622 2.26361 11.8659C2.70529 10.7822 2.8906 9.6135 3.06681 8.50223L3.06681 8.50222L3.06681 8.50222L3.06681 8.50221L3.06681 8.5022L3.06682 8.5022L3.06682 8.50219L3.06682 8.50218C3.11931 8.17115 3.17099 7.84522 3.22839 7.52815C3.36291 6.78523 3.53204 6.08238 3.83782 5.52048C4.15099 4.94499 4.61187 4.51017 5.31356 4.32666C6.20727 4.09292 7.00167 4.08327 7.70724 4.18396C8.19295 3.88677 8.77295 3.89449 9.2357 4.06069C9.65302 4.21057 10.0533 4.52351 10.1674 4.93974C10.3807 5.02325 10.5792 5.0972 10.7638 5.15152C10.8662 5.18161 10.9689 5.21099 11.0714 5.24029C11.5814 5.3861 12.0845 5.52994 12.491 5.74972C13.0071 6.02878 13.3967 6.44283 13.5342 7.13812C13.5934 7.43726 13.5185 7.73806 13.3876 8.01972C13.2563 8.30232 13.0558 8.59338 12.8235 8.88663C12.5422 9.24192 12.1881 9.63108 11.8226 10.0329C11.5951 10.2829 11.3631 10.5379 11.1415 10.7926C10.5484 11.4741 10.002 12.1819 9.67293 12.9077C9.3911 13.5294 9.2754 14.149 9.41721 14.7714C12.5574 14.1174 14.9166 11.3343 14.9166 8.00004C14.9166 4.18007 11.8199 1.08337 7.99992 1.08337ZM7.99992 14.9167C8.27878 14.9167 8.55378 14.9002 8.82401 14.8681C8.65854 14.0995 8.81134 13.3551 9.12646 12.66C9.49312 11.8511 10.088 11.0892 10.6889 10.3987C10.9323 10.1189 11.173 9.85464 11.4029 9.60228L11.4029 9.60227C11.5095 9.48528 11.6137 9.37086 11.7148 9.25864C11.0266 9.51778 10.4492 9.69151 9.94333 9.75696C9.15697 9.8587 8.53332 9.70036 7.93258 9.22611C7.80253 9.12345 7.78033 8.9348 7.883 8.80476C7.98566 8.67471 8.17431 8.65251 8.30435 8.75518C8.76905 9.12202 9.22808 9.2445 9.86634 9.16192C10.5187 9.07753 11.3447 8.78053 12.5252 8.28789C12.6622 8.09901 12.7697 7.92562 12.8435 7.76691C12.9462 7.54586 12.9706 7.38063 12.9456 7.25454C12.8488 6.76477 12.5935 6.48723 12.2056 6.27751C11.8621 6.09178 11.4368 5.9697 10.9274 5.8235L10.9274 5.82348C10.8202 5.79271 10.7092 5.76087 10.5945 5.72714C10.2793 5.63443 9.96012 5.50848 9.62699 5.37703C8.51674 4.93896 7.25191 4.43989 5.46537 4.90713C4.95211 5.04137 4.61393 5.34954 4.36484 5.80728C4.10835 6.27861 3.95202 6.89924 3.8188 7.63505C3.76622 7.92544 3.71769 8.23285 3.66735 8.55179C3.47444 9.77387 3.25479 11.1653 2.67793 12.4181C3.94666 13.9447 5.85978 14.9167 7.99992 14.9167ZM8.3586 1.62589C8.22074 1.61813 8.1027 1.72359 8.09494 1.86144C8.08717 1.99929 8.19263 2.11734 8.33048 2.1251C9.77582 2.2065 11.1404 2.81779 12.1634 3.84208C13.1864 4.86637 13.7959 6.23179 13.8754 7.67723C13.883 7.81509 14.0009 7.9207 14.1388 7.91312C14.2766 7.90553 14.3822 7.78763 14.3747 7.64976C14.2884 6.08151 13.6271 4.60008 12.5172 3.48875C11.4073 2.37743 9.92674 1.7142 8.3586 1.62589ZM7.0157 5.521C6.54471 5.521 6.1629 5.90281 6.1629 6.3738C6.1629 6.84479 6.54471 7.2266 7.0157 7.2266C7.48669 7.2266 7.8685 6.84479 7.8685 6.3738C7.8685 5.90281 7.48669 5.521 7.0157 5.521ZM5.6629 6.3738C5.6629 5.62667 6.26857 5.021 7.0157 5.021C7.76283 5.021 8.3685 5.62667 8.3685 6.3738C8.3685 7.12093 7.76283 7.7266 7.0157 7.7266C6.26857 7.7266 5.6629 7.12093 5.6629 6.3738ZM6.83575 6.37388C6.83575 6.27452 6.9163 6.19398 7.01565 6.19398C7.11501 6.19398 7.19555 6.27452 7.19555 6.37388C7.19555 6.47323 7.11501 6.55378 7.01565 6.55378C6.9163 6.55378 6.83575 6.47323 6.83575 6.37388ZM7.01565 5.69398C6.64015 5.69398 6.33575 5.99838 6.33575 6.37388C6.33575 6.74938 6.64015 7.05378 7.01565 7.05378C7.39115 7.05378 7.69555 6.74938 7.69555 6.37388C7.69555 5.99838 7.39115 5.69398 7.01565 5.69398ZM11.6139 7.92195C11.7565 7.92195 11.8722 7.80629 11.8722 7.66361C11.8722 7.52094 11.7565 7.40528 11.6139 7.40528C11.4712 7.40528 11.3555 7.52094 11.3555 7.66361C11.3555 7.80629 11.4712 7.92195 11.6139 7.92195Z" fill="white"/>
</svg>
