<svg width="32" height="32" viewBox="0 0 32 32" fill="none" xmlns="http://www.w3.org/2000/svg">
<path fill-rule="evenodd" clip-rule="evenodd" d="M20.1522 11.4982V8.47394C20.1522 6.19025 18.2837 4.32169 16 4.32169C13.7162 4.32169 11.8477 6.19019 11.8477 8.47394V11.4982H8.526V8.474C8.526 4.36331 11.8893 1 16 1C20.1107 1 23.474 4.36331 23.474 8.474V11.4982H20.1522ZM27.5858 15.6569V28.4037C27.5858 29.8317 26.4175 31 24.9896 31H7.01043C5.5825 31 4.41418 29.8317 4.41418 28.4037V15.6569C4.41418 14.2289 5.5825 13.0606 7.01043 13.0606H24.9896C26.4175 13.0606 27.5858 14.229 27.5858 15.6569ZM18.1834 20.0376C18.1834 18.8318 17.2059 17.8542 16 17.8542C14.7941 17.8542 13.8166 18.8318 13.8166 20.0376C13.8166 20.7796 14.1868 21.4349 14.7524 21.8295V24.9589C14.7524 25.6452 15.3137 26.2066 16 26.2066C16.6862 26.2066 17.2476 25.6451 17.2476 24.9589V21.8294C17.8132 21.4349 18.1834 20.7795 18.1834 20.0376Z" fill="url(#paint0_linear_56_1221)"/>
<defs>
<linearGradient id="paint0_linear_56_1221" x1="5.98834" y1="1.00001" x2="28.7965" y2="2.31306" gradientUnits="userSpaceOnUse">
<stop stop-color="#97F9FF"/>
<stop offset="1" stop-color="#2A7FFF"/>
</linearGradient>
</defs>
</svg>
