<svg width="32" height="32" viewBox="0 0 32 32" fill="none" xmlns="http://www.w3.org/2000/svg">
<g clip-path="url(#clip0_204_691)">
<path d="M5.3335 12C7.54264 12 9.3335 10.2091 9.3335 8C9.3335 5.79086 7.54264 4 5.3335 4C3.12436 4 1.3335 5.79086 1.3335 8C1.3335 10.2091 3.12436 12 5.3335 12Z" fill="url(#paint0_linear_204_691)"/>
<path d="M9.72 14.7602C8.378 15.5976 7.27118 16.7628 6.50376 18.146C5.73634 19.5292 5.33356 21.085 5.33333 22.6668H2.66667C1.96007 22.6647 1.28302 22.3831 0.78338 21.8835C0.28374 21.3838 0.0021103 20.7068 0 20.0002L0 17.3335C0.00316545 16.2736 0.425609 15.258 1.17507 14.5086C1.92453 13.7591 2.94011 13.3367 4 13.3335H6.66667C7.24876 13.3348 7.82355 13.4632 8.35092 13.7096C8.87829 13.956 9.34552 14.3145 9.72 14.7602Z" fill="url(#paint1_linear_204_691)"/>
<path d="M26.6665 12C28.8756 12 30.6665 10.2091 30.6665 8C30.6665 5.79086 28.8756 4 26.6665 4C24.4574 4 22.6665 5.79086 22.6665 8C22.6665 10.2091 24.4574 12 26.6665 12Z" fill="url(#paint2_linear_204_691)"/>
<path d="M31.9998 17.3335V20.0002C31.9977 20.7068 31.716 21.3838 31.2164 21.8835C30.7168 22.3831 30.0397 22.6647 29.3331 22.6668H26.6665C26.6662 21.085 26.2634 19.5292 25.496 18.146C24.7286 16.7628 23.6218 15.5976 22.2798 14.7602C22.6543 14.3145 23.1215 13.956 23.6489 13.7096C24.1762 13.4632 24.751 13.3348 25.3331 13.3335H27.9998C29.0597 13.3367 30.0753 13.7591 30.8247 14.5086C31.5742 15.258 31.9966 16.2736 31.9998 17.3335Z" fill="url(#paint3_linear_204_691)"/>
<path d="M15.9998 14.6667C18.9454 14.6667 21.3332 12.2789 21.3332 9.33333C21.3332 6.38781 18.9454 4 15.9998 4C13.0543 4 10.6665 6.38781 10.6665 9.33333C10.6665 12.2789 13.0543 14.6667 15.9998 14.6667Z" fill="url(#paint4_linear_204_691)"/>
<path d="M24 22.6667V24C23.9968 25.0599 23.5744 26.0755 22.8249 26.8249C22.0755 27.5744 21.0599 27.9968 20 28H12C10.9401 27.9968 9.92453 27.5744 9.17507 26.8249C8.42561 26.0755 8.00317 25.0599 8 24V22.6667C8 20.8986 8.70238 19.2029 9.95262 17.9526C11.2029 16.7024 12.8986 16 14.6667 16H17.3333C19.1014 16 20.7971 16.7024 22.0474 17.9526C23.2976 19.2029 24 20.8986 24 22.6667Z" fill="url(#paint5_linear_204_691)"/>
</g>
<defs>
<linearGradient id="paint0_linear_204_691" x1="1.87697" y1="4" x2="9.73395" y2="4.58562" gradientUnits="userSpaceOnUse">
<stop stop-color="#97F9FF"/>
<stop offset="1" stop-color="#2A7FFF"/>
</linearGradient>
<linearGradient id="paint1_linear_204_691" x1="0.660326" y1="13.3335" x2="10.2021" y2="14.0741" gradientUnits="userSpaceOnUse">
<stop stop-color="#97F9FF"/>
<stop offset="1" stop-color="#2A7FFF"/>
</linearGradient>
<linearGradient id="paint2_linear_204_691" x1="23.21" y1="4" x2="31.067" y2="4.58562" gradientUnits="userSpaceOnUse">
<stop stop-color="#97F9FF"/>
<stop offset="1" stop-color="#2A7FFF"/>
</linearGradient>
<linearGradient id="paint3_linear_204_691" x1="22.9401" y1="13.3335" x2="32.4819" y2="14.0741" gradientUnits="userSpaceOnUse">
<stop stop-color="#97F9FF"/>
<stop offset="1" stop-color="#2A7FFF"/>
</linearGradient>
<linearGradient id="paint4_linear_204_691" x1="11.3911" y1="4" x2="21.8671" y2="4.78082" gradientUnits="userSpaceOnUse">
<stop stop-color="#97F9FF"/>
<stop offset="1" stop-color="#2A7FFF"/>
</linearGradient>
<linearGradient id="paint5_linear_204_691" x1="9.08696" y1="16" x2="24.7337" y2="17.555" gradientUnits="userSpaceOnUse">
<stop stop-color="#97F9FF"/>
<stop offset="1" stop-color="#2A7FFF"/>
</linearGradient>
<clipPath id="clip0_204_691">
<rect width="32" height="32" fill="white"/>
</clipPath>
</defs>
</svg>
