<svg width="32" height="32" viewBox="0 0 32 32" fill="none" xmlns="http://www.w3.org/2000/svg">
<g clip-path="url(#clip0_204_670)">
<path fill-rule="evenodd" clip-rule="evenodd" d="M13.1767 20.7059V24.4706C13.1767 25.1702 13.913 25.6252 14.5387 25.3124L16.0002 24.5817L17.4616 25.3124C18.0874 25.6253 18.8237 25.1702 18.8237 24.4706V20.7059H20.706C21.2259 20.7059 21.6472 21.1273 21.6472 21.6471V31.0589C21.6472 31.5787 21.2259 32.0001 20.706 32.0001H11.2943C10.7745 32.0001 10.3531 31.5787 10.3531 31.0589V21.6471C10.3531 21.1273 10.7745 20.7059 11.2943 20.7059H13.1767ZM15.059 20.7059H16.9414V22.9478L16.4211 22.6876C16.1562 22.5551 15.8443 22.5551 15.5793 22.6876L15.059 22.9478V20.7059H15.059ZM19.0748 19.2941H12.9255L5.03205 12.477C4.76848 12.2494 4.66198 11.9074 4.72261 11.5882C4.71286 11.535 4.70742 11.4798 4.7068 11.4228C4.7063 11.3799 4.70611 11.3371 4.70611 11.2941C4.70605 5.05656 9.76261 0 16.0002 0C22.2377 0 27.2943 5.05656 27.2943 11.2941C27.2943 11.3371 27.294 11.3799 27.2936 11.4228C27.293 11.4799 27.2875 11.5351 27.2778 11.5882C27.3384 11.9074 27.2319 12.2493 26.9684 12.477L19.0748 19.2941ZM18.2535 11.8673C17.5719 11.4946 16.802 11.2941 16.0002 11.2941C15.1983 11.2941 14.4285 11.4946 13.7469 11.8673L16.0002 17.9834L18.2535 11.8673ZM11.9205 12.3551C11.9075 12.3458 11.8947 12.336 11.8821 12.3259C11.0533 11.6615 10.0267 11.2941 8.94136 11.2941C8.26636 11.2941 7.61386 11.4361 7.01686 11.704L13.8571 17.6115L11.9205 12.3551ZM24.9835 11.704C24.3865 11.4361 23.734 11.2941 23.059 11.2941C21.9737 11.2941 20.947 11.6615 20.1182 12.3259C20.1056 12.336 20.0928 12.3458 20.0798 12.3551L18.1432 17.6114L24.9835 11.704Z" fill="url(#paint0_linear_204_670)"/>
</g>
<defs>
<linearGradient id="paint0_linear_204_670" x1="6.24059" y1="8.8966e-06" x2="28.4867" y2="1.17043" gradientUnits="userSpaceOnUse">
<stop stop-color="#97F9FF"/>
<stop offset="1" stop-color="#2A7FFF"/>
</linearGradient>
<clipPath id="clip0_204_670">
<rect width="32" height="32" fill="white"/>
</clipPath>
</defs>
</svg>
