<svg width="32" height="32" viewBox="0 0 32 32" fill="none" xmlns="http://www.w3.org/2000/svg">
<g clip-path="url(#clip0_204_624)">
<path d="M6.78403 18.2719C4.54403 19.1359 2.65603 21.2479 1.79203 22.3359C1.50403 22.7199 0.96003 22.8479 0.54403 22.6239C0.12803 22.3999 -0.0959704 21.9519 0.0320296 21.4719C0.32003 20.2559 1.21603 18.1759 3.80803 15.3919C5.92003 13.1199 7.96803 12.3519 9.47203 12.1599C8.60803 13.4399 7.87203 14.8479 7.29603 16.2559C7.16803 16.5759 7.04003 16.8959 6.94403 17.1839C6.84803 17.5359 6.78403 17.8879 6.78403 18.2719ZM12.448 24.8959C12.128 24.7679 11.84 24.5759 11.616 24.3519L11.488 24.2559L11.296 24.0639C10.848 24.4799 10.272 24.7039 9.66403 24.7039C9.05603 24.7039 8.48003 24.4799 8.03203 24.0639C7.07203 23.1679 7.00803 21.6319 7.93603 20.6719L7.77603 20.5119C7.48803 20.2239 7.26403 19.9039 7.10403 19.5519C6.91203 19.7119 6.78403 19.8719 6.59203 20.0319C4.32003 22.3039 3.64803 25.4399 3.45603 27.1359V27.2959C3.45603 27.9999 4.03203 28.5759 4.73603 28.5759H4.86403C6.20803 28.4159 9.60003 27.8079 11.936 25.4399C12.128 25.2479 12.288 25.0879 12.448 24.8959ZM14.816 25.0239C14.496 25.1199 14.144 25.1839 13.824 25.1839H13.76C12.896 27.4559 10.784 29.3119 9.66403 30.1759C9.28003 30.4639 9.18403 31.0079 9.40803 31.4239C9.56803 31.7759 9.92003 31.9679 10.304 31.9999C10.4 31.9999 10.464 31.9999 10.56 31.9679C11.808 31.6799 13.888 30.7839 16.672 28.1919C18.944 26.0799 19.712 24.0319 19.904 22.5279C18.592 23.3919 17.216 24.1279 15.776 24.7039C15.392 24.8319 15.104 24.9599 14.816 25.0239ZM32 1.59989C31.552 4.31989 30.752 7.00789 29.6 9.50389C29.568 9.56789 29.536 9.59989 29.504 9.63189C29.504 9.63189 29.504 9.66389 29.472 9.66389C29.472 9.69589 29.44 9.69589 29.44 9.72789C28.384 12.1599 26.88 14.3359 25.024 16.2239C23.296 17.9519 21.408 19.5199 19.392 20.8959C18.048 21.8239 16.64 22.5919 15.168 23.1999C14.848 23.3279 14.592 23.4239 14.336 23.5199C14.176 23.5839 14.016 23.6159 13.824 23.6159C13.408 23.6159 12.992 23.4559 12.704 23.1679L12.64 23.1359L12.48 22.9759L16.416 19.0399C17.312 18.1119 17.312 16.6399 16.416 15.7119C15.488 14.7519 13.984 14.7199 13.024 15.6479L9.02403 19.5519L8.86403 19.3919C8.41603 18.9439 8.25603 18.3039 8.44803 17.6959C8.54403 17.4399 8.64003 17.1839 8.76803 16.8639C9.37603 15.3599 10.144 13.9519 11.072 12.6399C12.448 10.6239 14.016 8.70389 15.776 6.97589C17.664 5.11989 19.872 3.61589 22.272 2.49589L22.336 2.46389L22.368 2.43189L22.464 2.39989H22.496H22.528L23.136 2.14389C23.52 1.98389 23.872 1.82389 24.224 1.69589L26.208 1.02389C26.464 0.959887 26.72 0.863887 26.976 0.799887L27.136 0.767887C28.192 0.415887 29.28 0.191887 30.4 -0.000113282C30.848 -0.0641133 31.264 0.0638867 31.584 0.383887C31.904 0.703887 32.064 1.15189 32 1.59989ZM24.192 3.39189L28.608 7.80789C29.408 5.82389 30.016 3.74389 30.368 1.63189C28.256 1.98389 26.176 2.59189 24.192 3.39189ZM23.104 8.86389C21.92 7.67989 19.968 7.67989 18.752 8.86389C17.536 10.0479 17.536 11.9999 18.752 13.2159C19.936 14.4319 21.888 14.4319 23.104 13.2159L23.136 13.1839C24.32 11.9999 24.32 10.0479 23.104 8.86389ZM10.24 22.8799L15.264 17.8559C15.552 17.5359 15.552 17.0559 15.264 16.7359C14.944 16.4159 14.464 16.4159 14.144 16.7039L9.12003 21.7599C8.80003 22.0799 8.80003 22.5919 9.12003 22.8799C9.28003 23.0399 9.47203 23.1039 9.69603 23.1039C9.88803 23.1359 10.08 23.0399 10.24 22.8799Z" fill="url(#paint0_linear_204_624)"/>
</g>
<defs>
<linearGradient id="paint0_linear_204_624" x1="2.17122" y1="-0.0161044" x2="33.6166" y2="2.32779" gradientUnits="userSpaceOnUse">
<stop stop-color="#97F9FF"/>
<stop offset="1" stop-color="#2A7FFF"/>
</linearGradient>
<clipPath id="clip0_204_624">
<rect width="32" height="32" fill="white"/>
</clipPath>
</defs>
</svg>
