<svg width="32" height="32" viewBox="0 0 32 32" fill="none" xmlns="http://www.w3.org/2000/svg">
<path fill-rule="evenodd" clip-rule="evenodd" d="M27.6938 2.73346L29.9116 11.0102C30.0059 11.3624 29.9616 11.6991 29.7793 12.015L19.8699 29.1786C19.5053 29.8101 18.6927 30.0279 18.0611 29.6632L17.6431 29.4219L27.6424 12.1026C28.0306 11.4301 28.1318 10.6621 27.9308 9.91215L25.7571 1.7999L25.9756 1.7414C26.7219 1.5414 27.4938 1.98708 27.6938 2.73346ZM14.2372 23.144C14.1441 23.0904 14.0411 23.063 13.9353 23.063C13.8816 23.063 13.8271 23.0696 13.7734 23.0841C13.6146 23.1271 13.4827 23.2278 13.4016 23.3679L13.0789 23.9265C12.9979 24.0666 12.9771 24.2317 13.0196 24.3905C13.0621 24.549 13.1627 24.681 13.3028 24.7623C13.5947 24.931 13.9695 24.8304 14.1385 24.5385L14.4609 23.9793C14.6296 23.6873 14.529 23.3122 14.237 23.1441L14.2372 23.144ZM26.2893 11.3214L14.9279 31C14.3185 30.901 13.7959 30.4898 13.5609 29.8825C13.2278 29.0218 12.4631 28.5822 11.5538 28.7238C10.7161 28.8542 9.92238 28.396 9.61644 27.6052C9.28344 26.7446 8.51851 26.3047 7.60938 26.4464C6.77157 26.5768 5.97794 26.1186 5.67201 25.3279C5.33894 24.4671 4.57419 24.0276 3.66494 24.1691C3.03413 24.2673 2.42844 24.0318 2.04013 23.5665L13.4048 3.88246C13.5871 3.56671 13.8566 3.3599 14.2088 3.26552L22.4855 1.04783C23.2319 0.847835 24.0038 1.29346 24.2038 2.0399L26.4216 10.3166C26.516 10.6689 26.4717 11.0056 26.2893 11.3214ZM9.23426 17.0865C9.38488 17.6485 9.74407 18.1178 10.2454 18.4074C10.5793 18.5996 10.9498 18.6985 11.3261 18.6985C11.5154 18.6985 11.7067 18.6735 11.8947 18.6228C12.4566 18.4722 12.9254 18.1128 13.2156 17.6116L13.5379 17.0525C13.8278 16.5508 13.9043 15.9651 13.7537 15.4031C13.6031 14.8412 13.2442 14.3724 12.7423 14.0826C11.7043 13.4833 10.3717 13.84 9.77238 14.8783L9.45001 15.4375C9.16044 15.9391 9.08357 16.5249 9.23426 17.0865ZM15.0185 21.791C14.5166 21.5011 13.9311 21.4249 13.3692 21.5755C12.8073 21.7261 12.3379 22.0847 12.0486 22.5866L11.7259 23.1453C11.1266 24.1835 11.4837 25.5159 12.5216 26.1155C12.863 26.3122 13.236 26.4059 13.6048 26.4059C14.3565 26.4059 15.0893 26.016 15.4914 25.3197L15.8141 24.7605C16.4134 23.7223 16.0567 22.3905 15.0184 21.791H15.0185ZM17.55 17.2598C17.3343 16.8861 16.8561 16.7581 16.4825 16.9738L8.00044 21.8711C7.62651 22.0865 7.49851 22.5646 7.71419 22.9386C7.85913 23.1893 8.12157 23.3291 8.39151 23.3291C8.52407 23.3291 8.65844 23.2953 8.78169 23.2242L17.2638 18.3273C17.6374 18.111 17.7654 17.6334 17.55 17.2598ZM21.1718 4.98027C20.3473 4.50427 19.2931 4.78677 18.8171 5.61115C18.3411 6.43558 18.6236 7.48977 19.4481 7.96577C20.2725 8.44177 21.3267 8.15927 21.8027 7.33483C22.2787 6.5104 21.9962 5.45621 21.1718 4.98027ZM11.0267 17.054C11.1668 17.1347 11.3319 17.1561 11.4904 17.1136C11.6491 17.0711 11.7811 16.9705 11.8625 16.8301L12.1849 16.2712C12.2663 16.1311 12.2867 15.9666 12.2443 15.8078C12.2018 15.6488 12.1011 15.5168 11.9611 15.4357C11.8649 15.3803 11.7598 15.3541 11.6562 15.3541C11.445 15.3541 11.2386 15.4638 11.1256 15.6596L10.8033 16.2188C10.6343 16.5108 10.7349 16.8855 11.0268 17.054H11.0267Z" fill="url(#paint0_linear_56_1225)"/>
<defs>
<linearGradient id="paint0_linear_56_1225" x1="3.93685" y1="1.00001" x2="31.3776" y2="2.90346" gradientUnits="userSpaceOnUse">
<stop stop-color="#97F9FF"/>
<stop offset="1" stop-color="#2A7FFF"/>
</linearGradient>
</defs>
</svg>
