<svg width="32" height="32" viewBox="0 0 32 32" fill="none" xmlns="http://www.w3.org/2000/svg">
<path fill-rule="evenodd" clip-rule="evenodd" d="M29.9959 12.7316C29.8369 12.2422 29.4348 11.9097 28.9242 11.8456L20.6991 10.8116L17.1739 3.30843C16.9551 2.84268 16.5146 2.56299 16.0001 2.56299C15.4855 2.56299 15.045 2.84261 14.8262 3.30843L11.3011 10.8116L3.076 11.8456C2.56537 11.9097 2.16325 12.2422 2.00425 12.7316C1.84518 13.2211 1.97506 13.7264 2.35043 14.0784L8.397 19.7496L6.83862 27.8916C6.74187 28.3971 6.93375 28.8822 7.35012 29.1847C7.7665 29.4872 8.28725 29.5198 8.73806 29.2716L16.0001 25.2735L23.2622 29.2716C23.713 29.5198 24.2337 29.4872 24.6501 29.1848C25.0664 28.8823 25.2584 28.3972 25.1616 27.8917L23.6033 19.7495L29.6499 14.0784C30.0252 13.7264 30.1551 13.2211 29.9961 12.7316H29.9959ZM19.6331 22.2796L16.0001 20.2794L12.3671 22.2795L13.1467 18.2063L10.1217 15.3692L14.2366 14.8519L16.0001 11.0982L17.7636 14.8519L21.8784 15.3691L18.8535 18.2062L19.6331 22.2795L19.6331 22.2796Z" fill="#50F4FF"/>
</svg>
