<svg width="32" height="32" viewBox="0 0 32 32" fill="none" xmlns="http://www.w3.org/2000/svg">
<g clip-path="url(#clip0_228_517)">
<path d="M31.4716 5.62939C31.4716 5.27774 31.355 4.98449 31.1202 4.75006L27.2496 0.879512C27.0151 0.644873 26.722 0.527588 26.37 0.527588C26.0178 0.527588 25.725 0.644873 25.4904 0.879512L0.351924 26.0179C0.117011 26.2527 0 26.546 0 26.8979C0 27.2499 0.117011 27.5427 0.351924 27.7775L4.22233 31.6478C4.45724 31.8826 4.75008 31.9998 5.10214 31.9998C5.45386 31.9998 5.74704 31.8831 5.98174 31.6478L31.1205 6.5092C31.355 6.27435 31.4716 5.98145 31.4716 5.62939ZM22.7339 11.357L20.6425 9.26536L26.3698 3.53777L28.4613 5.62939L22.7339 11.357Z" fill="url(#paint0_linear_228_517)"/>
<path d="M4.47669 5.00403L5.06305 3.08844L6.97857 2.50208L5.06305 1.91559L4.47669 0L3.8902 1.91559L1.97461 2.50208L3.8902 3.08844L4.47669 5.00403Z" fill="url(#paint1_linear_228_517)"/>
<path d="M9.55892 7.42823L10.732 11.2597L11.905 7.42823L15.7364 6.25517L11.905 5.08225L10.732 1.25073L9.55892 5.08225L5.72754 6.25517L9.55892 7.42823Z" fill="url(#paint2_linear_228_517)"/>
<path d="M30.0843 14.426L29.498 12.5105L28.9118 14.426L26.9961 15.0124L28.9118 15.5989L29.498 17.5142L30.0843 15.5989L32.0002 15.0124L30.0843 14.426Z" fill="url(#paint3_linear_228_517)"/>
<path d="M16.9873 5.00403L17.5738 3.08844L19.4892 2.50208L17.5738 1.91559L16.9873 0L16.4011 1.91559L14.4854 2.50208L16.4011 3.08844L16.9873 5.00403Z" fill="url(#paint4_linear_228_517)"/>
</g>
<defs>
<linearGradient id="paint0_linear_228_517" x1="2.13802" y1="0.527597" x2="33.047" y2="2.83133" gradientUnits="userSpaceOnUse">
<stop stop-color="#97F9FF"/>
<stop offset="1" stop-color="#2A7FFF"/>
</linearGradient>
<linearGradient id="paint1_linear_228_517" x1="2.31455" y1="1.39121e-06" x2="7.22905" y2="0.366294" gradientUnits="userSpaceOnUse">
<stop stop-color="#97F9FF"/>
<stop offset="1" stop-color="#2A7FFF"/>
</linearGradient>
<linearGradient id="paint2_linear_228_517" x1="6.40749" y1="1.25074" x2="16.2374" y2="1.98339" gradientUnits="userSpaceOnUse">
<stop stop-color="#97F9FF"/>
<stop offset="1" stop-color="#2A7FFF"/>
</linearGradient>
<linearGradient id="paint3_linear_228_517" x1="27.336" y1="12.5105" x2="32.2507" y2="12.8768" gradientUnits="userSpaceOnUse">
<stop stop-color="#97F9FF"/>
<stop offset="1" stop-color="#2A7FFF"/>
</linearGradient>
<linearGradient id="paint4_linear_228_517" x1="14.8253" y1="1.39121e-06" x2="19.7397" y2="0.366284" gradientUnits="userSpaceOnUse">
<stop stop-color="#97F9FF"/>
<stop offset="1" stop-color="#2A7FFF"/>
</linearGradient>
<clipPath id="clip0_228_517">
<rect width="32" height="32" fill="white"/>
</clipPath>
</defs>
</svg>
