<svg width="129" height="56" viewBox="0 0 129 56" fill="none" xmlns="http://www.w3.org/2000/svg">
<g clip-path="url(#clip0_2002_563)">
<path d="M26.0894 55.9447C40.4982 55.9447 52.1789 44.2641 52.1789 29.8553C52.1789 15.4465 40.4982 3.76587 26.0894 3.76587C11.6806 3.76587 -5.72205e-06 15.4465 -5.72205e-06 29.8553C-5.72205e-06 44.2641 11.6806 55.9447 26.0894 55.9447Z" fill="url(#paint0_linear_2002_563)"/>
<path d="M2.28917 31.025C3.34933 31.025 4.20876 30.1655 4.20876 29.1054C4.20876 28.0452 3.34933 27.1858 2.28917 27.1858C1.229 27.1858 0.369572 28.0452 0.369572 29.1054C0.369572 30.1655 1.229 31.025 2.28917 31.025Z" fill="#19A9FC"/>
<path d="M2.28916 30.9358C3.30008 30.9358 4.1196 30.1163 4.1196 29.1053C4.1196 28.0944 3.30008 27.2749 2.28916 27.2749C1.27823 27.2749 0.458714 28.0944 0.458714 29.1053C0.458714 30.1163 1.27823 30.9358 2.28916 30.9358Z" fill="white"/>
<path d="M2.28915 30.6086C3.11933 30.6086 3.79232 29.9356 3.79232 29.1054C3.79232 28.2752 3.11933 27.6022 2.28915 27.6022C1.45897 27.6022 0.785973 28.2752 0.785973 29.1054C0.785973 29.9356 1.45897 30.6086 2.28915 30.6086Z" fill="#E1F6FE"/>
<path d="M2.28915 30.3998C3.00403 30.3998 3.58355 29.8203 3.58355 29.1054C3.58355 28.3905 3.00403 27.811 2.28915 27.811C1.57427 27.811 0.994751 28.3905 0.994751 29.1054C0.994751 29.8203 1.57427 30.3998 2.28915 30.3998Z" fill="white"/>
<path d="M2.28915 30.147C2.86442 30.147 3.33077 29.6807 3.33077 29.1054C3.33077 28.5301 2.86442 28.0638 2.28915 28.0638C1.71389 28.0638 1.24754 28.5301 1.24754 29.1054C1.24754 29.6807 1.71389 30.147 2.28915 30.147Z" fill="#2BF3FD"/>
<path d="M2.28914 29.9738C2.76874 29.9738 3.15753 29.585 3.15753 29.1054C3.15753 28.6258 2.76874 28.237 2.28914 28.237C1.80955 28.237 1.42076 28.6258 1.42076 29.1054C1.42076 29.585 1.80955 29.9738 2.28914 29.9738Z" fill="#37FCFF"/>
<path d="M2.28916 29.7452C2.56027 29.7452 2.78006 29.4588 2.78006 29.1054C2.78006 28.752 2.56027 28.4655 2.28916 28.4655C2.01804 28.4655 1.79825 28.752 1.79825 29.1054C1.79825 29.4588 2.01804 29.7452 2.28916 29.7452Z" fill="#0BB0E8"/>
<path d="M49.8902 31.025C50.9504 31.025 51.8098 30.1655 51.8098 29.1054C51.8098 28.0452 50.9504 27.1858 49.8902 27.1858C48.8301 27.1858 47.9706 28.0452 47.9706 29.1054C47.9706 30.1655 48.8301 31.025 49.8902 31.025Z" fill="#19A9FC"/>
<path d="M49.8902 30.9358C50.9012 30.9358 51.7207 30.1163 51.7207 29.1053C51.7207 28.0944 50.9012 27.2749 49.8902 27.2749C48.8793 27.2749 48.0598 28.0944 48.0598 29.1053C48.0598 30.1163 48.8793 30.9358 49.8902 30.9358Z" fill="white"/>
<path d="M49.8902 30.6086C50.7204 30.6086 51.3934 29.9356 51.3934 29.1054C51.3934 28.2752 50.7204 27.6022 49.8902 27.6022C49.0601 27.6022 48.3871 28.2752 48.3871 29.1054C48.3871 29.9356 49.0601 30.6086 49.8902 30.6086Z" fill="#E1F6FE"/>
<path d="M49.8902 30.3998C50.6051 30.3998 51.1846 29.8203 51.1846 29.1054C51.1846 28.3905 50.6051 27.811 49.8902 27.811C49.1754 27.811 48.5958 28.3905 48.5958 29.1054C48.5958 29.8203 49.1754 30.3998 49.8902 30.3998Z" fill="white"/>
<path d="M49.8902 30.147C50.4655 30.147 50.9319 29.6807 50.9319 29.1054C50.9319 28.5301 50.4655 28.0638 49.8902 28.0638C49.315 28.0638 48.8486 28.5301 48.8486 29.1054C48.8486 29.6807 49.315 30.147 49.8902 30.147Z" fill="#2BF3FD"/>
<path d="M49.8902 29.9738C50.3698 29.9738 50.7586 29.585 50.7586 29.1054C50.7586 28.6258 50.3698 28.237 49.8902 28.237C49.4106 28.237 49.0218 28.6258 49.0218 29.1054C49.0218 29.585 49.4106 29.9738 49.8902 29.9738Z" fill="#37FCFF"/>
<path d="M49.8902 29.7452C50.1614 29.7452 50.3811 29.4588 50.3811 29.1054C50.3811 28.752 50.1614 28.4655 49.8902 28.4655C49.6191 28.4655 49.3993 28.752 49.3993 29.1054C49.3993 29.4588 49.6191 29.7452 49.8902 29.7452Z" fill="#0BB0E8"/>
<path d="M0.585112 27.275L1.12115 26.0325H3.79233L4.55859 27.0814V27.6022V29.4479L3.91139 30.6086" stroke="white" stroke-width="0.229732" stroke-miterlimit="10" stroke-linecap="round"/>
<path d="M6.67906 27.6022H4.5586" stroke="white" stroke-width="0.229732" stroke-miterlimit="10" stroke-linecap="round"/>
<path d="M1.79826 23.108V24.961H1.96923" stroke="white" stroke-width="0.229732" stroke-miterlimit="10" stroke-linecap="round"/>
<path d="M2.88445 20.5186V25.1172H3.58356" stroke="white" stroke-width="0.229732" stroke-miterlimit="10" stroke-linecap="round"/>
<path d="M3.33077 24.1794H2.88445" stroke="white" stroke-width="0.229732" stroke-miterlimit="10" stroke-linecap="round"/>
<path d="M3.33077 21.0546L2.91773 20.6416H2.39354L2.06402 20.9706" stroke="white" stroke-width="0.229732" stroke-miterlimit="10" stroke-linecap="round"/>
<path d="M1.56747 31.8584V32.9525" stroke="white" stroke-width="0.229732" stroke-miterlimit="10" stroke-linecap="round"/>
<path d="M2.06402 31.9921V32.9525" stroke="white" stroke-width="0.229732" stroke-miterlimit="10" stroke-linecap="round"/>
<path d="M1.12115 31.8584V34.8275H2.39354" stroke="white" stroke-width="0.229732" stroke-miterlimit="10" stroke-linecap="round"/>
<path d="M2.39355 36.7471V37.4834L3.15755 38.8901V41.2786L6.12101 45.8767" stroke="white" stroke-width="0.229732" stroke-miterlimit="10" stroke-linecap="round"/>
<path d="M5.80616 40.9277L3.61685 42.0488" stroke="white" stroke-width="0.229732" stroke-miterlimit="10" stroke-linecap="round"/>
<path d="M6.21243 41.4885L4.02312 42.6097" stroke="white" stroke-width="0.229732" stroke-miterlimit="10" stroke-linecap="round"/>
<path d="M6.58878 42.0488L4.39891 43.1706" stroke="white" stroke-width="0.229732" stroke-miterlimit="10" stroke-linecap="round"/>
<path d="M6.9008 42.6097L4.71149 43.7309" stroke="white" stroke-width="0.229732" stroke-miterlimit="10" stroke-linecap="round"/>
<path d="M8.73295 44.0243L6.4116 46.1448" stroke="white" stroke-width="0.229732" stroke-miterlimit="10" stroke-linecap="round"/>
<path d="M2.92902 36.7471V37.5731L3.87415 38.5177" stroke="white" stroke-width="0.229732" stroke-miterlimit="10" stroke-linecap="round"/>
<path d="M3.87416 36.7471L4.11961 37.3824L4.5586 38.5177" stroke="white" stroke-width="0.229732" stroke-miterlimit="10" stroke-linecap="round"/>
<path d="M3.15753 37.3497L4.11959 37.3825" stroke="white" stroke-width="0.229732" stroke-miterlimit="10" stroke-linecap="round"/>
<path d="M5.61882 26.0325H5.16121L4.391 25.2623H4.1196V21.3226L5.89079 19.5515H6.53066" stroke="white" stroke-width="0.229732" stroke-miterlimit="10" stroke-linecap="round"/>
<path d="M5.2876 20.9355V21.2775H5.84565L6.13624 21.5681L5.14654 22.5578H4.1196" stroke="white" stroke-width="0.229732" stroke-miterlimit="10" stroke-linecap="round"/>
<path d="M5.21369 24.2539L4.82999 23.8708H4.1196" stroke="white" stroke-width="0.229732" stroke-miterlimit="10" stroke-linecap="round"/>
<path d="M4.80066 20.6416V19.3133L6.4765 17.6375V16.5457L5.04499 15.1141" stroke="white" stroke-width="0.229732" stroke-miterlimit="10" stroke-linecap="round"/>
<path d="M4.41753 16.2178L5.15783 16.9587V17.6764L4.8695 17.9648H4.31314L3.886 17.5376L4.27816 17.146" stroke="white" stroke-width="0.229732" stroke-miterlimit="10" stroke-linecap="round"/>
<path d="M6.4116 44.2698L6.84269 44.7014L6.49342 45.0507" stroke="white" stroke-width="0.229732" stroke-miterlimit="10" stroke-linecap="round"/>
<path d="M6.90082 42.8258L7.32683 43.2518L7.06896 43.5102L7.76695 44.2082L8.21214 43.7636" stroke="white" stroke-width="0.229732" stroke-miterlimit="10" stroke-linecap="round"/>
<path d="M2.28917 23.108V24.0345L2.10522 24.219" stroke="white" stroke-width="0.229732" stroke-miterlimit="10" stroke-linecap="round"/>
<path d="M3.18181 31.174H2.69091V31.6649H3.18181V31.174Z" stroke="white" stroke-width="0.229732" stroke-miterlimit="10" stroke-linecap="round"/>
<path d="M51.4154 27.275L50.8794 26.0325H48.2082L47.4419 27.0814V27.6022V29.4479L48.0891 30.6086" stroke="white" stroke-width="0.229732" stroke-miterlimit="10" stroke-linecap="round"/>
<path d="M45.3215 27.6022H47.4419" stroke="white" stroke-width="0.229732" stroke-miterlimit="10" stroke-linecap="round"/>
<path d="M50.2023 23.108V24.961H50.0313" stroke="white" stroke-width="0.229732" stroke-miterlimit="10" stroke-linecap="round"/>
<path d="M49.1161 20.5186V25.1172H48.417" stroke="white" stroke-width="0.229732" stroke-miterlimit="10" stroke-linecap="round"/>
<path d="M48.6698 24.1794H49.1161" stroke="white" stroke-width="0.229732" stroke-miterlimit="10" stroke-linecap="round"/>
<path d="M48.6698 21.0546L49.0828 20.6416H49.607L49.9365 20.9706" stroke="white" stroke-width="0.229732" stroke-miterlimit="10" stroke-linecap="round"/>
<path d="M50.433 31.8584V32.9525" stroke="white" stroke-width="0.229732" stroke-miterlimit="10" stroke-linecap="round"/>
<path d="M49.9365 31.9921V32.9525" stroke="white" stroke-width="0.229732" stroke-miterlimit="10" stroke-linecap="round"/>
<path d="M50.8794 31.8584V34.8275H49.607" stroke="white" stroke-width="0.229732" stroke-miterlimit="10" stroke-linecap="round"/>
<path d="M49.607 36.7471V37.4834L48.843 38.8901V41.2786L45.8795 45.8767" stroke="white" stroke-width="0.229732" stroke-miterlimit="10" stroke-linecap="round"/>
<path d="M46.1944 40.9277L48.3842 42.0488" stroke="white" stroke-width="0.229732" stroke-miterlimit="10" stroke-linecap="round"/>
<path d="M45.7881 41.4885L47.9774 42.6097" stroke="white" stroke-width="0.229732" stroke-miterlimit="10" stroke-linecap="round"/>
<path d="M45.4123 42.0488L47.6016 43.1706" stroke="white" stroke-width="0.229732" stroke-miterlimit="10" stroke-linecap="round"/>
<path d="M45.0997 42.6097L47.289 43.7309" stroke="white" stroke-width="0.229732" stroke-miterlimit="10" stroke-linecap="round"/>
<path d="M43.2676 44.0243L45.5895 46.1448" stroke="white" stroke-width="0.229732" stroke-miterlimit="10" stroke-linecap="round"/>
<path d="M49.0715 36.7471V37.5731L48.1264 38.5177" stroke="white" stroke-width="0.229732" stroke-miterlimit="10" stroke-linecap="round"/>
<path d="M48.1264 36.7471L47.8809 37.3824L47.4419 38.5177" stroke="white" stroke-width="0.229732" stroke-miterlimit="10" stroke-linecap="round"/>
<path d="M48.843 37.3497L47.8809 37.3825" stroke="white" stroke-width="0.229732" stroke-miterlimit="10" stroke-linecap="round"/>
<path d="M46.3817 26.0325H46.8393L47.6095 25.2623H47.8809V21.3226L46.1103 19.5515H45.4704" stroke="white" stroke-width="0.229732" stroke-miterlimit="10" stroke-linecap="round"/>
<path d="M46.7129 20.9355V21.2775H46.1549L45.8648 21.5681L46.854 22.5578H47.8809" stroke="white" stroke-width="0.229732" stroke-miterlimit="10" stroke-linecap="round"/>
<path d="M46.7874 24.2539L47.1705 23.8708H47.8809" stroke="white" stroke-width="0.229732" stroke-miterlimit="10" stroke-linecap="round"/>
<path d="M47.2004 20.6416V19.3133L45.524 17.6375V16.5457L46.9555 15.1141" stroke="white" stroke-width="0.229732" stroke-miterlimit="10" stroke-linecap="round"/>
<path d="M47.5835 16.2178L46.8432 16.9587V17.6764L47.1316 17.9648H47.6874L48.1145 17.5376L47.7224 17.146" stroke="white" stroke-width="0.229732" stroke-miterlimit="10" stroke-linecap="round"/>
<path d="M45.5895 44.2698L45.1578 44.7014L45.5077 45.0507" stroke="white" stroke-width="0.229732" stroke-miterlimit="10" stroke-linecap="round"/>
<path d="M45.0997 42.8258L44.6737 43.2518L44.9321 43.5102L44.2336 44.2082L43.7884 43.7636" stroke="white" stroke-width="0.229732" stroke-miterlimit="10" stroke-linecap="round"/>
<path d="M49.7114 23.108V24.0345L49.8953 24.219" stroke="white" stroke-width="0.229732" stroke-miterlimit="10" stroke-linecap="round"/>
<path d="M48.8187 31.6649H49.3096V31.174H48.8187V31.6649Z" stroke="white" stroke-width="0.229732" stroke-miterlimit="10" stroke-linecap="round"/>
<path d="M26.0003 7.67898C26.4908 7.67898 26.8884 7.28135 26.8884 6.79085C26.8884 6.30034 26.4908 5.90271 26.0003 5.90271C25.5098 5.90271 25.1121 6.30034 25.1121 6.79085C25.1121 7.28135 25.5098 7.67898 26.0003 7.67898Z" fill="white"/>
<path d="M22.2152 7.03625H29.7379" stroke="white" stroke-width="0.229732" stroke-miterlimit="10" stroke-linecap="round"/>
<path d="M22.5724 4.0672V5.90272H22.9578" stroke="white" stroke-width="0.229732" stroke-miterlimit="10" stroke-linecap="round"/>
<path d="M23.7111 5.69676V5.44002V5.18329" stroke="white" stroke-width="0.229732" stroke-miterlimit="10" stroke-linecap="round"/>
<path d="M24.4627 5.44003L24.8464 5.05634V4.43961L24.6951 4.28839" stroke="white" stroke-width="0.229732" stroke-miterlimit="10" stroke-linecap="round"/>
<path d="M23.1085 8.59869V9.10483" stroke="white" stroke-width="0.229732" stroke-miterlimit="10" stroke-linecap="round"/>
<path d="M23.5175 8.59869V9.10483" stroke="white" stroke-width="0.229732" stroke-miterlimit="10" stroke-linecap="round"/>
<path d="M24.031 8.6286V8.99311" stroke="white" stroke-width="0.229732" stroke-miterlimit="10" stroke-linecap="round"/>
<path d="M24.7307 8.6286V9.04502" stroke="white" stroke-width="0.229732" stroke-miterlimit="10" stroke-linecap="round"/>
<path d="M21.4417 7.39349V9.70412" stroke="white" stroke-width="0.229732" stroke-miterlimit="10" stroke-linecap="round"/>
<path d="M21.1443 7.148L20.5823 6.586" stroke="white" stroke-width="0.229732" stroke-miterlimit="10" stroke-linecap="round"/>
<path d="M21.0027 5.48853L19.618 6.87321" stroke="white" stroke-width="0.229732" stroke-miterlimit="10" stroke-linecap="round"/>
<path d="M20.7646 5.02698L19.2467 6.54539" stroke="white" stroke-width="0.229732" stroke-miterlimit="10" stroke-linecap="round"/>
<path d="M20.5823 4.63312L18.8466 6.3682" stroke="white" stroke-width="0.229732" stroke-miterlimit="10" stroke-linecap="round"/>
<path d="M29.4281 4.0672V5.90272H29.0427" stroke="white" stroke-width="0.229732" stroke-miterlimit="10" stroke-linecap="round"/>
<path d="M28.2894 5.69676V5.44002V5.18329" stroke="white" stroke-width="0.229732" stroke-miterlimit="10" stroke-linecap="round"/>
<path d="M27.5379 5.44003L27.1542 5.05634V4.43961L27.3054 4.28839" stroke="white" stroke-width="0.229732" stroke-miterlimit="10" stroke-linecap="round"/>
<path d="M28.8921 8.59869V9.10483" stroke="white" stroke-width="0.229732" stroke-miterlimit="10" stroke-linecap="round"/>
<path d="M28.483 8.59869V9.10483" stroke="white" stroke-width="0.229732" stroke-miterlimit="10" stroke-linecap="round"/>
<path d="M27.9695 8.6286V8.99311" stroke="white" stroke-width="0.229732" stroke-miterlimit="10" stroke-linecap="round"/>
<path d="M27.2704 8.6286V9.04502" stroke="white" stroke-width="0.229732" stroke-miterlimit="10" stroke-linecap="round"/>
<path d="M30.5589 7.39349V9.70412" stroke="white" stroke-width="0.229732" stroke-miterlimit="10" stroke-linecap="round"/>
<path d="M30.8568 7.148L31.4182 6.586" stroke="white" stroke-width="0.229732" stroke-miterlimit="10" stroke-linecap="round"/>
<path d="M30.9979 5.48853L32.3831 6.87321" stroke="white" stroke-width="0.229732" stroke-miterlimit="10" stroke-linecap="round"/>
<path d="M31.236 5.02698L32.7538 6.54539" stroke="white" stroke-width="0.229732" stroke-miterlimit="10" stroke-linecap="round"/>
<path d="M31.4182 4.63312L33.1539 6.3682" stroke="white" stroke-width="0.229732" stroke-miterlimit="10" stroke-linecap="round"/>
<path d="M24.8464 4.77417H27.1542" stroke="white" stroke-width="0.229732" stroke-miterlimit="10" stroke-linecap="round"/>
<path d="M9.62559 42.7293L8.28605 46.323C8.06317 47.4126 8.26292 48.2246 8.95582 48.7115L10.1391 43.1982L9.62559 42.7293Z" fill="#010206"/>
<path d="M42.4838 42.7293L43.8234 46.323C44.0462 47.4126 43.8465 48.2246 43.1536 48.7115L41.9704 43.1982L42.4838 42.7293Z" fill="#010206"/>
<path d="M9.97207 43.6558L8.87854 49.0467C8.93327 49.374 9.09691 49.5935 9.4253 49.6493L10.4077 43.6558H9.97263H9.97207Z" fill="#FFFFDC"/>
<path d="M42.1379 43.6558L43.2315 49.0467C43.1767 49.374 43.0131 49.5935 42.6847 49.6493L41.7023 43.6558H42.1374H42.1379Z" fill="#FFFFDC"/>
<path d="M10.2 43.7563L9.16968 49.5252C12.8926 53.2911 18.3721 55.5599 26.0008 55.9967L26.0115 48.3177L10.2 43.7563Z" fill="url(#paint1_linear_2002_563)"/>
<path d="M41.8011 43.7563L42.8314 49.5252C39.1085 53.2911 33.629 55.5599 26.0003 55.9967L25.9895 48.3177L41.8011 43.7563Z" fill="url(#paint2_linear_2002_563)"/>
<path d="M36.2753 53.6894C38.3986 51.8065 39.9306 49.6685 40.628 47.1711C39.8251 48.632 38.9273 49.7645 37.9269 50.542C39.2473 49.3509 40.1179 47.3602 40.7843 45.0061C39.6823 47.1807 38.2068 48.9147 36.1021 49.9044L26.007 48.9576L15.912 49.9044C13.8067 48.9153 12.3318 47.1807 11.2298 45.0061C11.8962 47.3602 12.7668 49.3503 14.0872 50.542C13.0867 49.765 12.189 48.632 11.3861 47.1711C12.0835 49.6685 13.616 51.8059 15.7387 53.6894C13.7554 52.1744 12.1924 50.2187 11.0735 47.7963C11.7297 50.1465 12.852 52.0345 14.5109 53.3887C17.9455 55.0814 21.7644 55.978 26.007 56C30.2491 55.978 34.0686 55.0814 37.5032 53.3887C39.1626 52.0345 40.2844 50.1465 40.9406 47.7963C39.8217 50.2187 38.2587 52.1744 36.2753 53.6894Z" fill="#E2EDFF"/>
<path d="M39.996 45.6922L26.0065 48.6743L12.0169 45.6922C12.7651 47.6135 14.2734 49.0264 16.3013 50.0911L14.9335 49.5037C16.6951 50.8924 18.5978 51.9848 20.7668 52.5135L18.4009 51.978C20.3713 53.1607 22.8438 53.8479 26.0059 53.853C29.1686 53.8479 31.6406 53.1607 33.6109 51.978L31.245 52.5135C33.4146 51.9848 35.3167 50.8924 37.0783 49.5037L35.7105 50.0911C37.7385 49.0258 39.2467 47.6135 39.9949 45.6922H39.996Z" fill="#8B9CFF"/>
<path d="M26.007 54.0319C23.315 54.0895 20.7815 53.4739 18.3569 52.395C20.7234 53.6443 23.2281 54.476 26.007 54.3744C28.7854 54.476 31.2901 53.6443 33.6572 52.395C31.2326 53.4744 28.6991 54.0895 26.007 54.0319Z" fill="#8B9CFF"/>
<path d="M28.2229 49.4485C39.6834 47.0171 47.3996 41.6685 47.9108 33.879C47.9537 33.2261 47.7946 32.5716 47.5937 31.9267C47.5751 31.8454 46.6751 29.2256 45.774 27.7574C45.7193 27.6682 45.6668 27.5847 45.6166 27.504C45.5613 15.1773 37.0156 10.4037 26.6113 9.72381C26.2051 9.69729 25.7971 9.69729 25.3909 9.72381C14.9866 10.4037 6.44094 15.1773 6.38564 27.504C6.33486 27.5842 6.28295 27.6682 6.22822 27.7574C5.3271 29.2256 4.42712 31.8448 4.4085 31.9267C4.20706 32.5716 4.0485 33.2261 4.09139 33.879C4.60317 41.6691 12.3188 47.0171 23.7794 49.4485C25.2368 49.7599 26.7186 49.7622 28.224 49.4485H28.2229Z" fill="#270751" stroke="black" stroke-width="0.689196" stroke-miterlimit="10"/>
<path d="M8.1822 20.013C5.87327 18.6769 7.29406 4.61619 9.69214 1.25662C12.1365 -1.41964 14.8991 0.518577 18.0933 5.90495L21.5753 12.0954L8.1822 20.0124V20.013Z" fill="#371B72"/>
<path d="M8.3313 17.572C8.4306 4.18962 11.3309 -2.40934 16.5158 12.4232C15.2034 14.8117 13.7764 17.2826 8.41142 19.7636L8.3313 17.5726V17.572Z" fill="#4B35B5"/>
<path d="M10.2711 19.4842C9.69837 18.7755 8.83054 17.7052 8.47393 16.9507C8.08573 17.8016 8.47506 19.5458 9.4264 20.7753L10.2711 19.4842Z" fill="#3B0D75"/>
<path d="M11.0768 17.3045C11.0723 17.2927 11.0678 17.2814 11.0639 17.2695C10.6655 16.224 10.1159 15.2676 9.44784 14.3806L10.0877 15.7534C10.121 15.9277 10.0759 15.9977 9.91673 15.917L9.13919 15.1096C9.62953 15.8487 10.055 16.5473 10.2293 17.089C10.323 17.3688 10.2214 17.3632 10.0431 17.2453L8.65901 15.8685L9.73053 17.2746C9.75084 17.4648 9.70796 17.5793 9.50708 17.5054L8.42089 16.1738L9.71586 18.4658L9.94664 19.5819L11.8961 18.1086L11.0644 17.2701" fill="#300751"/>
<path d="M8.33119 20.2618C7.55478 19.5486 7.06331 18.1752 6.9956 16.4542C6.90194 14.0759 7.1361 10.722 7.59202 7.90972C8.0028 5.37452 8.7826 2.06178 10.1645 0.677669C10.6334 0.208209 11.1474 -0.0191855 11.6919 0.00112765C13.5534 0.070531 15.6891 1.84793 18.0409 5.28368C19.811 7.86966 21.0997 10.5346 21.2803 10.9527L20.3216 11.2213C20.1456 10.8134 18.885 8.20821 17.1454 5.66624C14.9527 2.46297 13.2791 1.14939 11.6671 1.08901C11.3133 1.07603 10.9792 1.23233 10.6446 1.5675C8.38818 3.82847 7.51077 12.3002 7.67271 16.4283C7.73421 17.9896 8.20537 19.227 8.78937 19.7636L8.33119 20.2624V20.2618Z" fill="#010206"/>
<path d="M10.9798 17.4236C10.7168 14.718 10.7625 11.7083 11.188 10.0764C12.0372 11.6022 12.7916 13.2176 13.4501 14.9234L14.7298 13.2267L14.9081 12.1851L15.0864 12.9886L15.5926 12.2742C16.3283 8.64098 15.1722 5.90886 13.2859 3.52375C11.026 0.552954 9.02576 3.37874 7.61625 13.4648C7.72685 8.9626 8.67705 3.86061 10.5301 2.00817C12.1201 0.418097 14.4528 3.2168 16.0801 7.11862C16.1946 7.39398 16.2866 7.67836 16.3458 7.97064C16.5817 9.12962 16.5862 10.4184 16.5902 11.6569C17.5144 11.0537 18.2282 11.1519 18.7332 11.9469L15.6749 15.5633L12.3712 17.8626L10.9798 17.4236Z" fill="#17001B"/>
<path d="M43.8183 20.013C46.1272 18.6768 44.703 4.72622 42.3055 1.36665C39.8612 -1.30961 37.102 0.518577 33.9071 5.90551L30.4251 12.096L43.8183 20.013Z" fill="#371B72"/>
<path d="M43.6693 17.572C43.57 4.18962 40.6697 -2.40934 35.4848 12.4232C36.7972 14.8117 38.2242 17.2826 43.5892 19.7636L43.6693 17.5726V17.572Z" fill="#4B35B5"/>
<path d="M41.7294 19.4843C42.3021 18.7756 43.17 17.7052 43.5266 16.9508C43.9148 17.8017 43.5254 19.5458 42.5741 20.7753L41.7294 19.4843Z" fill="#3B0D75"/>
<path d="M40.9237 17.3046C40.9282 17.2927 40.9327 17.2814 40.9366 17.2696C41.335 16.224 41.8846 15.2676 42.5527 14.3806L41.9128 15.7534C41.8795 15.9278 41.9246 15.9978 42.0838 15.9171L42.8613 15.1096C42.371 15.8488 41.9455 16.5474 41.7712 17.089C41.6775 17.3689 41.7791 17.3633 41.9574 17.2453L43.3415 15.8686L42.27 17.2747C42.2497 17.4648 42.2925 17.5794 42.4934 17.5055L43.5796 16.1738L42.2846 18.4658L42.0539 19.5819L40.1044 18.1086L40.9361 17.2702" fill="#300751"/>
<path d="M43.6693 20.2618C44.4457 19.5486 44.9372 18.1752 45.0049 16.4542C45.0986 14.0759 44.8644 10.722 44.4085 7.90972C43.9977 5.37452 43.2179 2.06178 41.836 0.677669C41.3677 0.208209 40.8537 -0.0191855 40.3092 0.00112765C38.4477 0.070531 36.312 1.84793 33.9602 5.28368C32.1901 7.86966 30.9013 10.5346 30.7208 10.9527L31.6795 11.2213C31.8555 10.8134 33.116 8.20821 34.8556 5.66624C37.0483 2.46297 38.7219 1.14939 40.334 1.08901C40.6878 1.07603 41.0218 1.23233 41.3564 1.5675C43.6129 3.82847 44.4903 12.3002 44.3283 16.4283C44.2668 17.9896 43.7957 19.227 43.2117 19.7636L43.6699 20.2624L43.6693 20.2618Z" fill="#010206"/>
<path d="M41.0207 17.4236C41.2836 14.718 41.2379 11.7083 40.8125 10.0764C39.9633 11.6022 39.2089 13.2176 38.5504 14.9234L37.2707 13.2267L37.0923 12.1851L36.914 12.9886L36.4079 12.2742C35.6721 8.64098 36.8283 5.90886 38.7146 3.52375C40.9744 0.552954 42.9747 3.37874 44.3842 13.4648C44.2736 8.9626 43.3234 3.86061 41.4704 2.00817C39.8803 0.418097 37.5477 3.2168 35.9204 7.11862C35.8058 7.39398 35.7139 7.67836 35.6546 7.97064C35.4188 9.12962 35.4143 10.4184 35.4103 11.6569C34.4861 11.0537 33.7723 11.1519 33.2673 11.9469L36.3255 15.5633L39.6292 17.8626L41.0207 17.4236Z" fill="#17001B"/>
<path d="M9.05114 6.25879C8.8988 6.77 8.74983 7.33426 8.60482 7.95155C7.99317 14.3423 7.55531 18.8434 8.71767 19.9087L8.9067 20.0949L8.82149 19.7377C7.72063 17.7532 8.17598 12.4537 9.05058 6.25879H9.05114Z" fill="#FFFFDC"/>
<path d="M42.9493 6.25879C43.8239 12.4532 44.2793 17.7532 43.1784 19.7377L43.0932 20.0949L43.2822 19.9087C44.4446 18.8434 44.0067 14.3423 43.3951 7.95155C43.2501 7.33369 43.1017 6.77 42.9488 6.25879H42.9493Z" fill="#FFFFDC"/>
<path d="M40.3312 1.56077C40.7363 1.52183 41.1211 1.65895 41.4704 2.00822C42.1396 2.67743 42.6909 3.77039 43.1276 5.10598C43.1146 4.96604 43.1022 4.82611 43.0892 4.68504C43.0379 4.11628 42.92 3.59603 42.6587 3.08877C40.3114 -1.65266 36.5343 1.72835 31.7765 10.6769C29.6402 10.0381 27.9407 9.86772 26.0002 9.88239C24.0598 9.86829 22.3602 10.0381 20.224 10.6769C15.4667 1.72835 11.6891 -1.65266 9.34232 3.08877C9.08107 3.59603 8.96314 4.11628 8.91179 4.68504C8.89882 4.82611 8.8864 4.96661 8.87342 5.10598C9.31016 3.77039 9.86143 2.67743 10.5306 2.00822C10.8799 1.65895 11.2642 1.52183 11.6699 1.56077C12.6031 1.52578 13.6978 2.28301 14.9392 3.75515C16.3549 5.49193 18.1255 7.62255 19.618 11.6429C23.7274 10.1719 27.9684 10.1183 32.4085 11.6429C33.9009 7.62255 35.6467 5.49193 37.0624 3.75515C38.3032 2.28301 39.3985 1.52635 40.3317 1.56077H40.3312Z" fill="#FFFFDC"/>
<path d="M14.4816 5.19452L16.4683 3.72125" stroke="black" stroke-width="0.459464" stroke-miterlimit="10"/>
<path d="M14.8387 5.80731L16.8255 4.33405" stroke="black" stroke-width="0.459464" stroke-miterlimit="10"/>
<path d="M37.5189 5.19452L35.5322 3.72125" stroke="black" stroke-width="0.459464" stroke-miterlimit="10"/>
<path d="M37.1618 5.80731L35.175 4.33405" stroke="black" stroke-width="0.459464" stroke-miterlimit="10"/>
<path d="M47.5333 31.6795C47.2354 30.5335 46.6745 29.225 45.7734 27.7568C45.1082 26.6735 44.7538 26.2785 44.3752 25.3903C44.202 24.9841 44.0869 24.5558 44.0265 24.1191C43.1462 17.7599 36.6652 10.99 26.0003 10.5194C14.9719 10.99 8.85425 17.7599 7.97401 24.1191C7.91364 24.5564 7.79797 24.9846 7.62531 25.3903C7.24725 26.2785 6.89234 26.6735 6.22708 27.7568C5.32597 29.225 4.7651 30.5335 4.46717 31.6795C4.16417 32.8436 4.15288 33.835 4.30693 35.0278C4.95243 42.1961 15.1485 48.4599 25.8315 49.3886C25.888 49.3886 25.9438 49.3886 26.0003 49.3875C26.0567 49.3875 26.1125 49.3886 26.169 49.3886C36.8526 48.4599 47.0486 42.1961 47.6936 35.0278C47.8471 33.835 47.8358 32.8436 47.5333 31.6795Z" fill="url(#paint3_linear_2002_563)"/>
<path fill-rule="evenodd" clip-rule="evenodd" d="M8.18618 24.8605C7.70712 26.5848 6.75523 28.189 5.89079 29.6233C5.39142 30.4522 5.13977 31.1209 4.93833 31.9181C4.75776 32.6336 4.53827 33.3158 4.61444 33.8564C4.91688 35.4318 5.3587 36.8565 5.97994 38.0866C6.59328 38.7479 6.57015 38.5843 6.2553 38.042C5.14259 36.2144 4.89375 33.7113 4.89375 33.7113C4.89375 33.7113 5.56521 37.2566 8.15288 39.9616C10.5532 42.4708 13.6724 44.7922 15.7872 46.1447C10.2688 43.6902 5.94608 40.2832 4.6483 35.7201C3.92887 33.6651 4.24486 31.5802 5.42979 29.4698C6.49059 27.5615 7.56945 25.6261 7.99659 24.6709L8.12298 24.0981L8.18618 24.861V24.8605Z" fill="#FFFFDC"/>
<path fill-rule="evenodd" clip-rule="evenodd" d="M43.811 24.8605C44.29 26.5848 45.2419 28.189 46.1063 29.6233C46.6057 30.4522 46.8574 31.1209 47.0588 31.9181C47.2394 32.6336 47.4589 33.3158 47.3827 33.8564C47.0802 35.4318 46.6384 36.8565 46.0172 38.0866C45.4038 38.7479 45.427 38.5843 45.7418 38.042C46.8545 36.2144 47.1034 33.7113 47.1034 33.7113C47.1034 33.7113 46.4319 37.2566 43.8443 39.9616C41.4439 42.4708 38.3247 44.7922 36.2099 46.1447C41.7283 43.6902 46.051 40.2832 47.3488 35.7201C48.0683 33.6651 47.7523 31.5802 46.5673 29.4698C45.5065 27.5615 44.4277 25.6261 44.0005 24.6709L43.8742 24.0981L43.811 24.861V24.8605Z" fill="#FFFFDC"/>
<path d="M44.4215 30.0747C42.5877 28.3047 40.2821 27.9876 38.7812 28.6218C38.3648 28.7978 38.1142 29.1195 37.8411 29.4309C36.8808 30.7045 37.7023 31.4792 35.5892 32.729C35.0379 33.0551 33.3644 32.7363 32.5479 32.3775C32.3549 32.2923 31.8059 31.987 31.3257 31.6688C31.1474 31.5508 30.9589 31.5271 30.8421 31.4718C30.8015 32.6562 30.5922 33.8417 30.2169 35.0283C29.085 33.8789 27.6479 33.3864 26.0003 33.3469C24.3526 33.3864 22.916 33.8789 21.7836 35.0283C21.4089 33.8417 21.199 32.6562 21.1584 31.4718C21.0416 31.5277 20.8531 31.5508 20.6748 31.6688C20.1947 31.987 19.6462 32.2923 19.4527 32.3775C18.6362 32.7363 16.9626 33.0551 16.4113 32.729C14.2982 31.4792 15.1197 30.7045 14.1594 29.4309C13.8863 29.1195 13.6352 28.7978 13.2193 28.6218C11.7184 27.9876 9.41288 28.3047 7.57905 30.0747C6.81448 30.8122 6.33938 31.811 6.31794 32.8729C6.24233 36.5868 11.122 40.0654 17.647 43.4662C18.9256 44.1213 20.6444 44.7234 22.1899 45.1979C24.6731 45.9602 27.3274 45.9602 29.8107 45.1979C31.3567 44.7234 33.0755 44.1213 34.3535 43.4662C40.878 40.0654 45.7582 36.5868 45.6826 32.8729C45.6611 31.811 45.1855 30.8128 44.4215 30.0747Z" fill="white"/>
<path d="M19.9221 32.0479C17.0179 32.8339 15.7043 32.4649 15.1784 31.5232C16.1348 32.4655 17.5071 32.5761 19.1795 32.0869C16.9158 32.4982 15.8042 32.141 15.3009 31.3782C15.9317 31.9294 16.8339 32.2229 18.1526 32.1202C17.0946 32.1151 16.2635 31.8307 15.5909 31.3499C16.158 31.5745 16.7346 31.7139 17.3209 31.7799C16.7662 31.6586 16.1523 31.3539 15.6078 30.876C15.1096 30.4387 14.5527 29.9517 14.1345 29.291C13.9275 28.9637 13.541 28.795 13.2193 28.6212C12.6822 29.2272 12.6376 29.9072 13.331 30.6971C14.1165 31.7342 15.0718 32.448 16.1772 32.874C16.316 32.9276 16.4627 32.9581 16.6111 32.966C18.0877 33.0427 19.4701 32.7154 20.6822 31.6642C19.4453 32.4672 18.2305 32.8232 17.0343 32.7905C16.7194 32.782 16.4096 32.7109 16.1213 32.5851L15.5779 32.3481C16.8971 32.962 18.3591 32.7843 19.9215 32.0468L19.9221 32.0479Z" fill="#FFE6BA"/>
<path d="M32.079 32.0479C34.9832 32.8339 36.2968 32.4649 36.8227 31.5232C35.8662 32.4655 34.494 32.5761 32.8215 32.0869C35.0853 32.4982 36.1969 32.141 36.7002 31.3782C36.0694 31.9294 35.1671 32.2229 33.8485 32.1202C34.9064 32.1151 35.7376 31.8307 36.4102 31.3499C35.8431 31.5745 35.2664 31.7139 34.6802 31.7799C35.2348 31.6586 35.8488 31.3539 36.3933 30.876C36.8915 30.4387 37.4484 29.9517 37.8665 29.291C38.0736 28.9637 38.4601 28.795 38.7817 28.6212C39.3189 29.2272 39.3635 29.9072 38.67 30.6971C37.8846 31.7342 36.9293 32.448 35.8239 32.874C35.6851 32.9276 35.5384 32.9581 35.39 32.966C33.9134 33.0427 32.5309 32.7154 31.3189 31.6642C32.5558 32.4672 33.7706 32.8232 34.9668 32.7905C35.2817 32.782 35.5915 32.7109 35.8798 32.5851L36.4232 32.3481C35.1039 32.962 33.642 32.7843 32.0795 32.0468L32.079 32.0479Z" fill="#FFE6BA"/>
<path opacity="0.8" d="M34.7705 39.1988C34.683 38.9268 34.323 38.8619 34.1329 39.0752C28.1439 43.785 27.9904 39.5543 27.9904 39.5543H24.0316C24.0316 39.5543 23.8775 43.785 17.8891 39.0752C17.699 38.8614 17.3395 38.9262 17.2515 39.1988C17.1545 39.5007 17.26 39.9284 17.546 40.4689C18.5137 42.3011 20.9558 44.1247 23.1615 44.1969C23.9453 44.2223 24.7267 44.0564 25.418 43.6857C25.6403 43.5667 25.8395 43.4358 26.011 43.2902C26.1825 43.4358 26.3823 43.5667 26.604 43.6857C27.2952 44.0564 28.0767 44.2223 28.8605 44.1969C31.0661 44.1247 33.5082 42.3011 34.4759 40.4689C34.7626 39.9289 34.8681 39.5007 34.7705 39.1988Z" fill="url(#paint4_linear_2002_563)"/>
<path d="M33.7407 40.0542C33.6476 39.921 33.5387 39.93 33.4016 40.1772C33.0969 40.7256 32.9434 41.1099 32.5755 41.5799C32.33 41.8936 31.8566 42.2971 31.513 42.4979C29.9286 43.4256 28.264 43.5853 26.5036 42.5961C26.3986 42.5369 26.3331 42.4263 26.3331 42.3055V40.5868L26.0008 40.3713L25.6685 40.5868V42.3055C25.6685 42.4257 25.603 42.5369 25.4981 42.5961C23.737 43.5858 22.0725 43.4256 20.4886 42.4979C20.145 42.2965 19.6716 41.8936 19.4261 41.5799C19.0588 41.1104 18.9047 40.7256 18.6 40.1772C18.4629 39.93 18.3535 39.921 18.2609 40.0542C18.1785 40.1721 18.1667 40.3256 18.2175 40.4604C18.7772 41.9529 19.8138 43.1367 21.8626 43.6665C22.073 43.7213 22.2891 43.7545 22.5069 43.7653C23.7319 43.8262 24.8943 43.7929 25.6329 43.1288C25.7232 43.0475 25.8422 43.0052 25.9641 43.0052H26.0392C26.1611 43.0052 26.2795 43.0475 26.3704 43.1288C27.109 43.7923 28.2708 43.8262 29.4964 43.7653C29.7136 43.7545 29.9297 43.7213 30.1407 43.6665C32.1895 43.1367 33.2266 41.9529 33.7858 40.4604C33.8366 40.3256 33.8242 40.1721 33.7424 40.0542H33.7407Z" fill="#1A0033"/>
<path d="M29.8598 36.3379C29.563 35.0424 28.1281 34.5464 26.0003 34.5374C23.8724 34.5464 22.4375 35.0424 22.1408 36.3379C22.0307 36.8762 21.9811 37.6831 22.1554 38.064C22.9341 40.0344 24.2556 40.6838 25.9997 40.7278C27.7438 40.6838 29.0653 40.0344 29.8439 38.064C30.0183 37.6831 29.9692 36.8762 29.8586 36.3379H29.8598Z" fill="#1A0033"/>
<path d="M28.167 38.8675C27.3906 39.0176 26.6587 39.0447 26.0003 38.8675C25.3418 39.0447 24.6099 39.0176 23.8335 38.8675C23.6027 38.8461 23.438 38.9144 23.4431 39.2134C24.1681 40.0023 25.0207 40.4486 26.0003 40.553C26.9798 40.4486 27.8324 40.0023 28.5575 39.2134C28.5625 38.9138 28.3978 38.8461 28.167 38.8675Z" fill="#260366"/>
<path d="M27.2788 35.9063H26.0002H24.7216C24.4175 35.9577 24.3442 36.2065 24.3583 36.5315H27.6422C27.6569 36.2071 27.583 35.9577 27.2788 35.9063Z" fill="white"/>
<path d="M27.2896 34.8348C28.1258 34.9059 28.6443 35.2687 28.9773 35.8019C28.0626 35.5982 27.0887 35.4989 26.011 35.5864C24.9327 35.4995 23.9593 35.5982 23.0447 35.8019C23.3776 35.2687 23.8961 34.9059 24.7324 34.8348C25.5985 34.7247 26.4522 34.7168 27.2896 34.8348Z" fill="white"/>
<path d="M23.034 37.8694C23.2055 37.8366 23.3782 37.8282 23.5514 37.8248L23.5215 37.8349C23.6659 37.7226 23.8442 37.6572 24.0197 37.6143C24.1083 37.594 24.2014 37.5816 24.2962 37.5979C24.5405 37.6374 24.6985 37.8789 24.7532 38.1046C24.7854 38.2401 24.773 38.3856 24.7606 38.5182C24.7532 38.6074 24.742 38.6965 24.7273 38.7857C24.7262 38.7919 24.7171 38.7919 24.716 38.7857C24.6838 38.6108 24.6799 38.4313 24.6601 38.2559C24.6201 37.9055 24.3633 37.5082 23.965 37.6668C23.8222 37.7232 23.7066 37.8299 23.5813 37.9156L23.5661 37.9258H23.5508C23.3776 37.9218 23.2049 37.9134 23.0334 37.8806C23.0278 37.8795 23.0272 37.8705 23.0334 37.8694H23.034Z" fill="white"/>
<path d="M28.9665 37.8806C28.7899 37.9139 28.6122 37.9224 28.4339 37.9258L28.4186 37.9156C28.2934 37.8299 28.1777 37.7232 28.035 37.6668C27.6372 37.5082 27.3804 37.906 27.3398 38.2559C27.32 38.4313 27.3161 38.6102 27.2839 38.7857C27.2834 38.7919 27.2732 38.7919 27.2726 38.7857C27.258 38.6965 27.2467 38.6074 27.2394 38.5182C27.2269 38.3856 27.2151 38.2401 27.2467 38.1046C27.3014 37.8789 27.4594 37.6374 27.7037 37.5979C27.7985 37.5816 27.8916 37.594 27.9802 37.6143C28.1557 37.6572 28.334 37.7226 28.4785 37.8349L28.4486 37.8248C28.6218 37.8282 28.7944 37.8372 28.966 37.8694C28.9716 37.8705 28.9722 37.8795 28.966 37.8806H28.9665Z" fill="white"/>
<path d="M26.837 40.1636C26.7778 40.1941 26.6751 40.2516 26.6085 40.2516L26.0003 40.3075L25.392 40.2516C25.3254 40.2516 25.2227 40.1941 25.1635 40.1636C24.9146 40.0355 24.9208 40.0569 25.0692 40.2657C25.1341 40.3566 25.2329 40.4186 25.3435 40.4372C25.5737 40.4767 25.796 40.505 26.0008 40.5078C26.2051 40.505 26.4274 40.4767 26.6582 40.4372C26.7682 40.4186 26.8675 40.3566 26.9324 40.2657C27.0808 40.0569 27.087 40.0355 26.8382 40.1636H26.837Z" fill="white"/>
<path d="M17.0145 22.1261C17.2481 21.7435 17.6713 21.2171 18.3428 20.9987C19.8488 20.5089 21.6397 21.8852 21.9811 23.2981C22.0353 23.5215 22.2158 24.2686 21.7689 24.8046C21.4975 25.1308 21.0303 25.335 20.6083 25.2622C20.2669 25.203 20.2076 25.0061 19.7602 24.6709C19.0154 24.1134 18.7169 24.3137 17.7847 23.6778C17.2775 23.3319 17.1059 23.0949 17.0258 22.8404C16.9361 22.5561 16.9733 22.2931 17.0145 22.1261Z" fill="white"/>
<path d="M34.986 22.1261C34.7524 21.7435 34.3292 21.2171 33.6578 20.9987C32.1518 20.5089 30.3608 21.8852 30.0195 23.2981C29.9653 23.5215 29.7847 24.2686 30.2316 24.8046C30.503 25.1308 30.9702 25.335 31.3923 25.2622C31.7337 25.203 31.7929 25.0061 32.2404 24.6709C32.9852 24.1134 33.2837 24.3137 34.2158 23.6778C34.7231 23.3319 34.8946 23.0949 34.9747 22.8404C35.0645 22.5561 35.0272 22.2931 34.986 22.1261Z" fill="white"/>
<path d="M21.269 30.2514C21.3282 30.6717 21.2515 30.9533 20.9429 30.999C19.1807 32.0124 17.4343 32.0141 15.9633 31.1023C15.7207 30.9516 15.5063 30.7592 15.3308 30.5335C14.3828 29.3153 13.5528 28.6099 12.5721 28.0982C12.4424 27.9097 12.4745 27.7432 12.6393 27.5948L13.2588 27.3793C13.5156 27.2901 13.7452 27.1355 13.9224 26.9296C17.1798 23.1547 20.8571 24.4988 21.2278 29.8186C21.238 29.963 21.2487 30.108 21.269 30.2514Z" fill="#15001C"/>
<path d="M30.7316 30.2514C30.6723 30.6717 30.749 30.9533 31.0577 30.999C32.8199 32.0124 34.5662 32.0141 36.0372 31.1023C36.2799 30.9516 36.4943 30.7592 36.6698 30.5335C37.6177 29.3153 38.4477 28.6099 39.4284 28.0982C39.5582 27.9097 39.526 27.7432 39.3613 27.5948L38.7417 27.3793C38.485 27.2901 38.2553 27.1355 38.0781 26.9296C34.8207 23.1547 31.1435 24.4988 30.7727 29.8186C30.7626 29.963 30.7519 30.108 30.7316 30.2514Z" fill="#15001C"/>
<path d="M15.8093 26.6018C15.5582 26.6396 15.425 27.363 15.4408 27.9187C15.4498 28.233 15.4967 29.857 16.8695 30.5307C17.7875 30.981 18.9211 30.8207 19.6484 30.1848C20.0062 29.8722 20.4378 29.4033 20.3182 29.1917C20.185 28.9564 19.5599 29.361 18.6886 29.1917C17.6566 28.9908 16.9474 28.114 16.6906 27.7963C16.1354 27.1096 16.0321 26.5685 15.8087 26.6023L15.8093 26.6018Z" fill="url(#paint5_linear_2002_563)"/>
<path d="M19.8657 30.784C19.7839 30.8771 19.6857 30.955 19.5774 31.0154C18.5391 31.5909 17.4721 31.4961 16.3222 30.6757C15.2789 29.9591 14.8122 29.1742 14.9296 27.9024C14.9668 27.5012 15.1401 27.122 15.429 26.8416C15.5384 26.7349 15.649 26.6458 15.7568 26.6006C15.5531 28.0282 15.7715 29.2481 16.5947 29.9907C17.2255 30.56 18.1289 30.74 18.9318 30.4607C19.5322 30.2519 19.8888 29.84 20.2042 29.3237C20.2375 29.2696 20.2911 29.2273 20.3543 29.2188C20.4457 29.2058 20.4886 29.2651 20.5118 29.3915C20.5202 29.4383 20.5236 29.4857 20.5225 29.5331C20.4017 30.0138 20.18 30.4291 19.8668 30.784H19.8657Z" fill="url(#paint6_linear_2002_563)"/>
<path d="M36.1918 26.6018C36.4429 26.6396 36.5761 27.363 36.5603 27.9187C36.5513 28.233 36.5044 29.857 35.1316 30.5307C34.2136 30.981 33.08 30.8207 32.3526 30.1848C31.9949 29.8722 31.5633 29.4033 31.6829 29.1917C31.816 28.9564 32.4412 29.361 33.3124 29.1917C34.3445 28.9908 35.0537 28.114 35.3105 27.7963C35.8657 27.1096 35.969 26.5685 36.1924 26.6023L36.1918 26.6018Z" fill="url(#paint7_linear_2002_563)"/>
<path d="M32.1348 30.784C32.2167 30.8771 32.3148 30.955 32.4232 31.0154C33.4614 31.5909 34.5284 31.4961 35.6784 30.6757C36.7217 29.9591 37.1883 29.1742 37.0709 27.9024C37.0337 27.5012 36.8605 27.122 36.5716 26.8416C36.4621 26.7349 36.3515 26.6458 36.2437 26.6006C36.4474 28.0282 36.2291 29.2481 35.4058 29.9907C34.775 30.56 33.8716 30.74 33.0687 30.4607C32.4683 30.2519 32.1117 29.84 31.7963 29.3237C31.763 29.2696 31.7094 29.2273 31.6462 29.2188C31.5548 29.2058 31.5119 29.2651 31.4888 29.3915C31.4803 29.4383 31.4769 29.4857 31.478 29.5331C31.5988 30.0138 31.8205 30.4291 32.1337 30.784H32.1348Z" fill="url(#paint8_linear_2002_563)"/>
<path d="M16.4006 26.5679C16.7307 26.4629 17.1155 26.9414 17.1928 26.8692C17.2413 26.8241 17.0873 26.6413 17.0145 26.5735C16.7764 26.3524 16.7623 26.2643 16.7465 26.1515C16.7166 25.9393 17.0721 25.6532 17.3604 25.5635C17.7706 25.436 18.3309 25.6211 18.4878 26.0324C18.6243 26.3902 18.3896 26.7468 18.2869 26.9031C18.2412 26.9725 17.9241 27.4368 17.3384 27.5057C17.2538 27.5158 16.9124 27.5469 16.5795 27.3494C16.5027 27.3037 16.1241 27.0791 16.1664 26.8246C16.1851 26.7129 16.2832 26.6057 16.4006 26.5679Z" fill="white"/>
<path d="M35.5999 26.5679C35.2698 26.4629 34.885 26.9414 34.8077 26.8692C34.7592 26.8241 34.9132 26.6413 34.986 26.5735C35.2241 26.3524 35.2382 26.2643 35.254 26.1515C35.2839 25.9393 34.9285 25.6532 34.6401 25.5635C34.2299 25.436 33.6696 25.6211 33.5127 26.0324C33.3762 26.3902 33.6109 26.7468 33.7136 26.9031C33.7593 26.9725 34.0764 27.4368 34.6621 27.5057C34.7468 27.5158 35.0881 27.5469 35.421 27.3494C35.4978 27.3037 35.8764 27.0791 35.8341 26.8246C35.8155 26.7129 35.7173 26.6057 35.5999 26.5679Z" fill="white"/>
<path opacity="0.75" d="M16.6557 29.2701C16.773 29.0354 17.0078 28.8515 17.2385 28.7939C17.9647 28.6128 18.7586 29.6561 18.9635 29.4817C19.0549 29.4039 18.9494 29.1494 19.0284 29.1195C19.0859 29.0975 19.1982 29.2109 19.2552 29.3277C19.3867 29.5963 19.2806 29.9947 19.0368 30.2266C18.8224 30.4303 18.5595 30.4489 18.2813 30.4681C17.6837 30.5098 17.2611 30.2689 17.0162 30.1289C16.6664 29.9292 16.606 29.787 16.5851 29.7108C16.5321 29.5167 16.6212 29.339 16.6557 29.2696V29.2701Z" fill="url(#paint9_linear_2002_563)"/>
<path opacity="0.75" d="M35.3449 29.2701C35.2275 29.0354 34.9928 28.8515 34.762 28.7939C34.0358 28.6128 33.2419 29.6561 33.0371 29.4817C32.9457 29.4039 33.0512 29.1494 32.9722 29.1195C32.9147 29.0975 32.8024 29.2109 32.7454 29.3277C32.6139 29.5963 32.72 29.9947 32.9638 30.2266C33.1782 30.4303 33.4411 30.4489 33.7193 30.4681C34.3168 30.5098 34.7395 30.2689 34.9843 30.1289C35.3342 29.9292 35.3946 29.787 35.4154 29.7108C35.4685 29.5167 35.3793 29.339 35.3449 29.2696V29.2701Z" fill="url(#paint10_linear_2002_563)"/>
<path d="M15.8341 13.1928C13.3452 14.7011 8.85426 17.7604 7.97402 24.1196C7.91365 24.5569 7.79798 24.9852 7.62531 25.3909C7.24726 26.279 6.89235 26.674 6.22709 27.7573C5.32598 29.2255 4.76511 30.534 4.46718 31.68C4.16418 32.8441 4.15289 33.8355 4.30693 35.0283C4.95244 42.1966 15.1485 48.4604 25.8315 49.3892H26.0003H26.169C36.8526 48.4604 47.0486 42.1966 47.6936 35.0283C47.8471 33.8355 47.8358 32.8441 47.5333 31.68C47.2354 30.534 46.6745 29.2255 45.7734 27.7573C45.1082 26.674 44.7538 26.279 44.3752 25.3909C44.202 24.9846 44.0869 24.5563 44.0265 24.1196C43.1463 17.7604 38.714 14.7597 36.2251 13.2515" stroke="black" stroke-width="0.229732" stroke-miterlimit="10"/>
<path d="M23.4397 14.3924L21.1386 12.3295L19.3528 12.0615L18.2514 10.99H17.2396L15.662 12.865L16.0192 13.6685L17.2695 14.5019L17.4179 15.2163L21.2673 17.1607L23.4397 14.3924Z" fill="url(#paint11_linear_2002_563)"/>
<path d="M28.5608 14.3924L30.8619 12.3295L32.6477 12.0615L33.7492 10.99H34.7609L36.3385 12.865L35.9813 13.6685L34.7315 14.5019L34.5826 15.2163L30.7332 17.1607L28.5608 14.3924Z" fill="url(#paint12_linear_2002_563)"/>
<path d="M21.8964 14.9945L19.9881 13.4129L18.9313 14.7496C18.8438 14.8641 18.7264 14.9335 18.6249 14.832L18.5115 14.7524C18.4234 14.6644 18.4184 14.5239 18.4991 14.4296L19.7162 12.9835L20.013 13.0196L22.0144 14.8167L21.8964 14.9945Z" fill="#B7F9FF"/>
<path d="M19.9937 14.106L19.6894 14.4847C19.6052 14.5894 19.6219 14.7425 19.7266 14.8266L20.9123 15.7796C21.017 15.8638 21.1701 15.8471 21.2542 15.7424L21.5586 15.3637C21.6427 15.259 21.626 15.106 21.5214 15.0218L20.3356 14.0688C20.231 13.9847 20.0779 14.0013 19.9937 14.106Z" fill="#B7F9FF"/>
<path d="M19.4236 14.929C19.3928 14.9042 19.3476 14.9091 19.3229 14.9399C19.2981 14.9708 19.303 15.0159 19.3338 15.0407L20.7869 16.2086C20.8178 16.2334 20.8629 16.2285 20.8877 16.1976C20.9125 16.1668 20.9076 16.1217 20.8767 16.0969L19.4236 14.929Z" fill="#B7F9FF"/>
<path d="M17.4116 11.6964L16.5993 12.707C16.5152 12.8117 16.5318 12.9648 16.6365 13.049L17.6472 13.8613C17.7519 13.9454 17.9049 13.9288 17.9891 13.8241L18.8014 12.8134C18.8855 12.7087 18.8689 12.5556 18.7642 12.4715L17.7535 11.6592C17.6488 11.575 17.4958 11.5917 17.4116 11.6964Z" fill="url(#paint13_radial_2002_563)"/>
<path d="M17.4587 12.1251L17.0285 12.6604C16.9443 12.765 16.961 12.9181 17.0657 13.0023L17.6009 13.4325C17.7056 13.5166 17.8587 13.4999 17.9428 13.3953L18.373 12.86C18.4572 12.7553 18.4405 12.6022 18.3358 12.5181L17.8006 12.0879C17.6959 12.0038 17.5428 12.0204 17.4587 12.1251Z" fill="#B7F9FF"/>
<path d="M16.1828 13.3119L15.9447 13.5647L17.225 14.6063L17.3288 15.157H17.7006V14.5617L16.1828 13.3119Z" fill="white"/>
<path d="M18.0917 10.9996L18.0691 11.1502L19.1553 12.2218L19.4284 12.2957L19.3827 12.0023L18.2514 10.99L18.0917 10.9996Z" fill="white"/>
<path d="M19.268 15.1229C19.2371 15.0981 19.192 15.103 19.1672 15.1338C19.1425 15.1647 19.1474 15.2098 19.1782 15.2346L20.6313 16.4025C20.6622 16.4273 20.7073 16.4224 20.7321 16.3916C20.7569 16.3607 20.752 16.3156 20.7211 16.2908L19.268 15.1229Z" fill="#B7F9FF"/>
<path d="M30.1041 14.9945L32.0124 13.4129L33.0692 14.7496C33.1567 14.8641 33.2741 14.9335 33.3756 14.832L33.489 14.7524C33.5771 14.6644 33.5821 14.5239 33.5015 14.4296L32.2844 12.9835L31.9876 13.0196L29.9862 14.8167L30.1041 14.9945Z" fill="#B7F9FF"/>
<path d="M30.4435 15.3641L30.7479 15.7428C30.832 15.8475 30.9851 15.8642 31.0898 15.78L32.2755 14.827C32.3802 14.7429 32.3968 14.5898 32.3127 14.4851L32.0083 14.1064C31.9242 14.0017 31.7711 13.9851 31.6664 14.0692L30.4807 15.0222C30.376 15.1064 30.3594 15.2595 30.4435 15.3641Z" fill="#B7F9FF"/>
<path d="M31.1245 16.0969C31.0936 16.1217 31.0887 16.1668 31.1135 16.1976C31.1383 16.2285 31.1834 16.2334 31.2143 16.2086L32.6674 15.0407C32.6982 15.0159 32.7031 14.9708 32.6783 14.9399C32.6535 14.9091 32.6084 14.9042 32.5776 14.929L31.1245 16.0969Z" fill="#B7F9FF"/>
<path d="M33.2002 12.8134L34.0125 13.8241C34.0967 13.9287 34.2498 13.9454 34.3545 13.8613L35.3651 13.0489C35.4698 12.9648 35.4865 12.8117 35.4023 12.707L34.59 11.6964C34.5059 11.5917 34.3528 11.575 34.2481 11.6592L33.2374 12.4715C33.1328 12.5556 33.1161 12.7087 33.2002 12.8134Z" fill="url(#paint14_radial_2002_563)"/>
<path d="M33.629 12.8597L34.0592 13.3949C34.1434 13.4996 34.2965 13.5163 34.4011 13.4321L34.9364 13.0019C35.0411 12.9178 35.0577 12.7647 34.9736 12.66L34.5434 12.1248C34.4593 12.0201 34.3062 12.0034 34.2015 12.0876L33.6662 12.5178C33.5616 12.6019 33.5449 12.755 33.629 12.8597Z" fill="#B7F9FF"/>
<path d="M35.8177 13.3119L36.0558 13.5647L34.7761 14.6063L34.6717 15.157H34.2999V14.5617L35.8177 13.3119Z" fill="white"/>
<path d="M33.9088 10.9996L33.9314 11.1502L32.8452 12.2218L32.5721 12.2957L32.6178 12.0023L33.7492 10.99L33.9088 10.9996Z" fill="white"/>
<path d="M31.2805 16.2913C31.2497 16.3161 31.2448 16.3612 31.2696 16.3921C31.2944 16.4229 31.3395 16.4278 31.3703 16.403L32.8234 15.2351C32.8543 15.2103 32.8592 15.1652 32.8344 15.1344C32.8096 15.1035 32.7645 15.0986 32.7336 15.1234L31.2805 16.2913Z" fill="#B7F9FF"/>
<path d="M12.0609 17.3046C11.684 17.3046 11.0864 17.436 10.837 17.69C10.2779 18.2598 9.77963 18.9979 9.52346 19.9312H14.5984C14.5984 18.4805 13.4625 17.3046 12.0609 17.3046Z" fill="black"/>
<path d="M39.9396 17.3046C40.3165 17.3046 40.9141 17.436 41.1635 17.69C41.7226 18.2598 42.2209 18.9979 42.4771 19.9312H37.4021C37.4021 18.4805 38.538 17.3046 39.9396 17.3046Z" fill="black"/>
<path fill-rule="evenodd" clip-rule="evenodd" d="M21.6177 18.015L12.2353 18.8856V18.015L21.998 17.0067L21.6177 18.015Z" fill="black"/>
<path fill-rule="evenodd" clip-rule="evenodd" d="M30.3834 18.015L39.7653 18.8856V18.015L30.0031 17.0067L30.3834 18.015Z" fill="black"/>
<path fill-rule="evenodd" clip-rule="evenodd" d="M21.5359 20.7274L20.83 17.4829L13.8795 18.3739C13.4315 17.8768 12.7826 17.5647 12.0609 17.5647C10.709 17.5647 9.61263 18.6611 9.61263 20.013C9.61263 21.365 10.709 22.4613 12.0609 22.4613C13.093 22.4613 13.9749 21.8226 14.3354 20.9198L21.5359 20.7274Z" fill="white"/>
<path fill-rule="evenodd" clip-rule="evenodd" d="M30.4647 20.7274L31.1705 17.4829L38.121 18.3739C38.569 17.8768 39.2179 17.5647 39.9396 17.5647C41.2916 17.5647 42.3879 18.6611 42.3879 20.013C42.3879 21.365 41.2916 22.4613 39.9396 22.4613C38.9076 22.4613 38.0257 21.8226 37.6651 20.9198L30.4647 20.7274Z" fill="white"/>
<path d="M16.7759 20.743L14.1248 20.8101L14.1296 20.9996L16.7807 20.9325L16.7759 20.743Z" fill="white"/>
<path fill-rule="evenodd" clip-rule="evenodd" d="M21.6673 19.767L12.1506 20.0948V20.9654L22.0527 20.7759L21.6673 19.767Z" fill="url(#paint15_linear_2002_563)"/>
<path fill-rule="evenodd" clip-rule="evenodd" d="M30.3332 19.767L39.8505 20.0948V20.9654L29.9478 20.7759L30.3332 19.767Z" fill="url(#paint16_linear_2002_563)"/>
<path fill-rule="evenodd" clip-rule="evenodd" d="M20.6929 19.807L13.9212 20.3656L13.5692 18.617L20.6573 17.7559C20.5936 18.1627 20.5343 18.8799 20.6929 19.807Z" fill="url(#paint17_linear_2002_563)"/>
<path fill-rule="evenodd" clip-rule="evenodd" d="M31.3076 19.807L38.0793 20.3656L38.4314 18.617L31.3432 17.7559C31.4069 18.1627 31.4662 18.8799 31.3076 19.807Z" fill="url(#paint18_linear_2002_563)"/>
<path d="M20.782 19.6084H19.2986L19.2077 18.4595H20.782V19.6084Z" fill="black"/>
<path d="M20.7161 17.7448L19.1535 17.9356L19.2722 18.9079L20.8348 18.7172L20.7161 17.7448Z" fill="#00007B"/>
<path d="M31.1665 18.717L32.7292 18.9078L32.8479 17.9354L31.2852 17.7447L31.1665 18.717Z" fill="#00007B"/>
<path d="M20.7764 18.5583L19.2377 18.7457" stroke="white" stroke-width="0.344598" stroke-miterlimit="10"/>
<path d="M20.7769 19.53L19.3042 19.7094" stroke="white" stroke-width="0.344598" stroke-miterlimit="10"/>
<path d="M31.2185 19.6084H32.7019L32.7927 18.4595H31.2185V19.6084Z" fill="black"/>
<path d="M31.2241 18.5583L32.7634 18.7457" stroke="white" stroke-width="0.344598" stroke-miterlimit="10"/>
<path d="M31.2235 19.53L32.6962 19.7094" stroke="white" stroke-width="0.344598" stroke-miterlimit="10"/>
<path d="M13.1815 18.7123L16.2635 18.6339" stroke="black" stroke-width="0.344598" stroke-miterlimit="10"/>
<path d="M12.0609 22.2752C13.3102 22.2752 14.323 21.2624 14.323 20.0131C14.323 18.7638 13.3102 17.751 12.0609 17.751C10.8116 17.751 9.79881 18.7638 9.79881 20.0131C9.79881 21.2624 10.8116 22.2752 12.0609 22.2752Z" fill="#0B2F72"/>
<path d="M39.9396 22.275C41.1889 22.275 42.2017 21.2623 42.2017 20.013C42.2017 18.7636 41.1889 17.7509 39.9396 17.7509C38.6903 17.7509 37.6775 18.7636 37.6775 20.013C37.6775 21.2623 38.6903 22.275 39.9396 22.275Z" fill="#0B2F72"/>
<path d="M12.0609 21.6499C12.965 21.6499 13.6978 20.917 13.6978 20.013C13.6978 19.109 12.965 18.3761 12.0609 18.3761C11.1569 18.3761 10.424 19.109 10.424 20.013C10.424 20.917 11.1569 21.6499 12.0609 21.6499Z" fill="white"/>
<path d="M39.9396 21.6499C40.8436 21.6499 41.5765 20.917 41.5765 20.013C41.5765 19.109 40.8436 18.3761 39.9396 18.3761C39.0356 18.3761 38.3027 19.109 38.3027 20.013C38.3027 20.917 39.0356 21.6499 39.9396 21.6499Z" fill="white"/>
<path d="M12.0609 20.9654C12.5869 20.9654 13.0134 20.539 13.0134 20.0129C13.0134 19.4869 12.5869 19.0605 12.0609 19.0605C11.5349 19.0605 11.1085 19.4869 11.1085 20.0129C11.1085 20.539 11.5349 20.9654 12.0609 20.9654Z" fill="#369ACB"/>
<path d="M39.9396 20.9654C40.4656 20.9654 40.8921 20.539 40.8921 20.0129C40.8921 19.4869 40.4656 19.0605 39.9396 19.0605C39.4136 19.0605 38.9871 19.4869 38.9871 20.0129C38.9871 20.539 39.4136 20.9654 39.9396 20.9654Z" fill="#369ACB"/>
<path fill-rule="evenodd" clip-rule="evenodd" d="M11.6191 19.0893C11.8606 19.6406 11.9091 19.978 12.2353 19.9723C11.9955 19.6947 12.0502 19.3816 12.0096 19.0001L11.6191 19.0898V19.0893Z" fill="white"/>
<path fill-rule="evenodd" clip-rule="evenodd" d="M40.3814 19.0893C40.1399 19.6406 40.0914 19.978 39.7652 19.9723C40.0051 19.6947 39.9503 19.3816 39.9909 19.0001L40.3814 19.0898V19.0893Z" fill="white"/>
<path fill-rule="evenodd" clip-rule="evenodd" d="M16.8413 20.1253L16.4068 20.1631L16.1269 17.8666L16.5597 17.8141L16.8413 20.1253Z" fill="black"/>
<path fill-rule="evenodd" clip-rule="evenodd" d="M35.1592 20.1253L35.5937 20.1631L35.8741 17.8666L35.4408 17.8141L35.1592 20.1253Z" fill="black"/>
<path d="M26.0003 23.9961C28.9318 23.9961 31.3082 21.6196 31.3082 18.6881C31.3082 15.7566 28.9318 13.3802 26.0003 13.3802C23.0688 13.3802 20.6923 15.7566 20.6923 18.6881C20.6923 21.6196 23.0688 23.9961 26.0003 23.9961Z" fill="#81F7FE" stroke="#001270" stroke-width="0.229732" stroke-miterlimit="10"/>
<path d="M26.0003 22.002C27.8305 22.002 29.3141 20.5183 29.3141 18.6881C29.3141 16.8579 27.8305 15.3743 26.0003 15.3743C24.1701 15.3743 22.6864 16.8579 22.6864 18.6881C22.6864 20.5183 24.1701 22.002 26.0003 22.002Z" fill="url(#paint19_radial_2002_563)"/>
<path d="M26.0003 23.021C28.3933 23.021 30.3332 21.0811 30.3332 18.6881C30.3332 16.2951 28.3933 14.3552 26.0003 14.3552C23.6073 14.3552 21.6674 16.2951 21.6674 18.6881C21.6674 21.0811 23.6073 23.021 26.0003 23.021Z" fill="#99FAFE"/>
<path d="M26.0003 21.796C27.7167 21.796 29.1082 20.4046 29.1082 18.6881C29.1082 16.9717 27.7167 15.5802 26.0003 15.5802C24.2838 15.5802 22.8924 16.9717 22.8924 18.6881C22.8924 20.4046 24.2838 21.796 26.0003 21.796Z" fill="white"/>
<path d="M26.0003 21.7306C27.6806 21.7306 29.0427 20.3684 29.0427 18.6881C29.0427 17.0078 27.6806 15.6456 26.0003 15.6456C24.32 15.6456 22.9578 17.0078 22.9578 18.6881C22.9578 20.3684 24.32 21.7306 26.0003 21.7306Z" stroke="#0074F6" stroke-width="0.287165" stroke-miterlimit="10"/>
<path d="M26.0003 22.8128C28.2783 22.8128 30.125 20.9661 30.125 18.6881C30.125 16.4101 28.2783 14.5634 26.0003 14.5634C23.7222 14.5634 21.8756 16.4101 21.8756 18.6881C21.8756 20.9661 23.7222 22.8128 26.0003 22.8128Z" stroke="#005CD1" stroke-width="0.229732" stroke-miterlimit="10"/>
<path d="M26.0003 23.1525C28.4659 23.1525 30.4646 21.1537 30.4646 18.6881C30.4646 16.2225 28.4659 14.2238 26.0003 14.2238C23.5347 14.2238 21.5359 16.2225 21.5359 18.6881C21.5359 21.1537 23.5347 23.1525 26.0003 23.1525Z" stroke="#0D43B0" stroke-width="0.459464" stroke-miterlimit="10"/>
<path d="M26.0003 20.5807C27.0455 20.5807 27.8928 19.7334 27.8928 18.6882C27.8928 17.643 27.0455 16.7957 26.0003 16.7957C24.9551 16.7957 24.1077 17.643 24.1077 18.6882C24.1077 19.7334 24.9551 20.5807 26.0003 20.5807Z" fill="#16FFFF"/>
<path d="M25.8293 13.3807L25.0168 13.4101L25.423 14.2328L25.8293 14.2237V13.3807Z" fill="url(#paint20_linear_2002_563)"/>
<path d="M26.1712 13.3807L26.9838 13.4101L26.5775 14.2328L26.1712 14.2237V13.3807Z" fill="url(#paint21_linear_2002_563)"/>
<path d="M26.0003 20.1264C26.7946 20.1264 27.4386 19.4824 27.4386 18.6881C27.4386 17.8938 26.7946 17.2498 26.0003 17.2498C25.2059 17.2498 24.562 17.8938 24.562 18.6881C24.562 19.4824 25.2059 20.1264 26.0003 20.1264Z" stroke="white" stroke-width="0.287165" stroke-miterlimit="10"/>
<path fill-rule="evenodd" clip-rule="evenodd" d="M14.9719 19.3071L16.2832 19.1475L16.4068 20.1631L15.0887 20.2647L14.9719 19.3071Z" fill="url(#paint22_linear_2002_563)"/>
<path fill-rule="evenodd" clip-rule="evenodd" d="M37.0286 19.3071L35.7179 19.1475L35.5937 20.1631L36.9118 20.2647L37.0286 19.3071Z" fill="url(#paint23_linear_2002_563)"/>
<path fill-rule="evenodd" clip-rule="evenodd" d="M26.055 23.4899H24.9237L25.058 29.8942H26.055H27.0521L27.1858 23.4899H26.055Z" fill="#81F7FE"/>
<path fill-rule="evenodd" clip-rule="evenodd" d="M26.055 23.0215H25.058L25.2374 29.8942H26.055H26.8726L27.052 23.0215H26.055Z" fill="url(#paint24_linear_2002_563)"/>
<path fill-rule="evenodd" clip-rule="evenodd" d="M25.1358 33.1928L24.646 32.8548V30.1204C24.646 29.9489 24.786 29.809 24.9575 29.809H27.0436C27.2151 29.809 27.355 29.9489 27.355 30.1204V32.8548L26.8653 33.1928H25.1358Z" fill="#1D2572"/>
<path d="M27.043 29.8942C27.1683 29.8942 27.2698 29.9958 27.2698 30.121V32.8108L26.8382 33.1082H25.1618L24.7301 32.8108V30.121C24.7301 29.9958 24.8317 29.8942 24.957 29.8942H27.043ZM27.043 29.7249H24.957C24.7386 29.7249 24.5609 29.9027 24.5609 30.121V32.9L24.6342 32.9502L25.0659 33.2476L25.1093 33.2775H26.8912L26.9347 33.2476L27.3663 32.9502L27.4397 32.9V30.121C27.4397 29.9027 27.2619 29.7249 27.0436 29.7249H27.043Z" fill="white"/>
<path d="M26.4968 31.2326H25.5037V32.3871H26.4968V31.2326Z" fill="#1D2572"/>
<path d="M26.2147 31.5147V32.1049H25.7858V31.5147H26.2147ZM26.7789 30.9504H25.2216V32.5129L25.3779 32.6692H26.6232L26.7795 32.5129V30.9504H26.7789Z" fill="white"/>
<path fill-rule="evenodd" clip-rule="evenodd" d="M26.0002 30.4968H25.2216V30.6604H26.0002H26.7789V30.4968H26.0002Z" fill="white"/>
<path d="M26.0003 23.0876H25.5562V23.9899H26.0003H26.4443V23.0876H26.0003Z" fill="white"/>
<path fill-rule="evenodd" clip-rule="evenodd" d="M18.3958 18.0375L16.6128 18.248L16.8413 20.1253L18.7078 19.9718L18.3958 18.0375Z" fill="#4A3A98"/>
<path fill-rule="evenodd" clip-rule="evenodd" d="M33.6053 18.0375L35.3878 18.248L35.1592 20.1253L33.2927 19.9718L33.6053 18.0375Z" fill="#4A3A98"/>
<path d="M18.5803 18.0087C18.6492 18.8252 18.7423 19.5559 18.9177 19.9531L19.3669 19.9164C19.236 19.6275 19.0898 18.7467 18.9663 17.9613L18.5803 18.0087Z" fill="#07ADF7"/>
<path d="M18.2931 18.0499L18.5814 18.0149C18.6108 18.6971 18.718 19.3448 18.9177 19.9531L18.6277 19.9785C18.4979 19.4261 18.3913 18.7727 18.2931 18.0499Z" fill="black"/>
<path d="M18.9663 17.9613L19.2546 17.9235C19.2839 18.6057 19.4182 19.2873 19.618 19.8956L19.3674 19.9165C19.2264 19.5881 19.0142 18.8083 18.9668 17.9613H18.9663Z" fill="black"/>
<path d="M33.4202 18.0087C33.3513 18.8252 33.2582 19.5559 33.0828 19.9531L32.6336 19.9164C32.7645 19.6275 32.9107 18.7467 33.0342 17.9613L33.4202 18.0087Z" fill="#07ADF7"/>
<path d="M33.708 18.0499L33.4196 18.0149C33.3903 18.6971 33.2831 19.3448 33.0833 19.9531L33.3734 19.9785C33.5031 19.4261 33.6098 18.7727 33.708 18.0499Z" fill="black"/>
<path d="M33.0343 17.9613L32.7459 17.9235C32.7166 18.6057 32.5823 19.2873 32.3825 19.8956L32.6331 19.9165C32.7741 19.5881 32.9863 18.8083 33.0337 17.9613H33.0343Z" fill="black"/>
<path d="M26.0003 25.0337H25.5562L25.6109 27.9001H26.0003H26.3896L26.4443 25.0337H26.0003Z" fill="white"/>
<path d="M26.0003 29.1528H25.6058L25.6544 29.3362H26.0003H26.3467L26.3952 29.1528H26.0003Z" fill="white"/>
<path d="M7.83014 19.732C7.12144 21.4677 6.18703 25.0969 6.39637 27.9724L7.16996 27.271C6.74508 25.6567 6.48214 24.3877 8.16249 20.2618L7.83014 19.7314V19.732Z" fill="#FFFFDC"/>
<path d="M44.1704 19.732C44.8791 21.4677 45.8135 25.0969 45.6042 27.9724L44.8306 27.271C45.2554 25.6567 45.5184 24.3877 43.838 20.2618L44.1704 19.7314V19.732Z" fill="#FFFFDC"/>
</g>
<path d="M63.2 34L68.46 19.7H70.48L75.76 34H73.8L72.28 29.64H66.58L65.04 34H63.2ZM68.8 23.38L67.1 28.18H71.78L70.14 23.38L69.5 21.36H69.46C69.2067 22.16 68.9867 22.8333 68.8 23.38ZM79.2888 23.66V25.02H79.3288C80.1288 23.9533 81.2221 23.42 82.6088 23.42C83.7021 23.42 84.5554 23.7067 85.1688 24.28C85.7821 24.8533 86.0888 25.6733 86.0888 26.74V34H84.4688V26.88C84.4688 26.2133 84.2621 25.7 83.8488 25.34C83.4354 24.9667 82.8621 24.78 82.1288 24.78C81.3021 24.78 80.6221 25.0467 80.0888 25.58C79.5554 26.1133 79.2888 26.8 79.2888 27.64V34H77.6688V23.66H79.2888ZM89.9598 37.42C89.3465 37.42 88.8598 37.3467 88.4998 37.2V35.76H88.5798C88.8465 35.9067 89.2132 35.98 89.6798 35.98C90.0398 35.98 90.3398 35.8867 90.5798 35.7C90.8198 35.5267 91.0332 35.2 91.2198 34.72L91.6198 33.7L87.5798 23.66H89.3398L91.7798 30.1L92.4798 32.12H92.5198C92.7598 31.3467 92.9865 30.6733 93.1998 30.1L95.5598 23.66H97.2798L92.8598 34.84C92.4598 35.8533 92.0465 36.5333 91.6198 36.88C91.1932 37.24 90.6398 37.42 89.9598 37.42ZM103.089 34V19.7H104.889V34H103.089ZM109.579 23.66V25.02H109.619C110.419 23.9533 111.513 23.42 112.899 23.42C113.993 23.42 114.846 23.7067 115.459 24.28C116.073 24.8533 116.379 25.6733 116.379 26.74V34H114.759V26.88C114.759 26.2133 114.553 25.7 114.139 25.34C113.726 24.9667 113.153 24.78 112.419 24.78C111.593 24.78 110.913 25.0467 110.379 25.58C109.846 26.1133 109.579 26.8 109.579 27.64V34H107.959V23.66H109.579ZM127.326 34H125.706V32.58H125.666C124.852 33.6867 123.812 34.24 122.546 34.24C121.479 34.24 120.632 33.94 120.006 33.34C119.379 32.7267 119.066 31.8867 119.066 30.82V23.66H120.686V30.78C120.686 31.4467 120.886 31.9667 121.286 32.34C121.699 32.7133 122.272 32.9 123.006 32.9C123.819 32.9 124.472 32.6267 124.966 32.08C125.459 31.5333 125.706 30.8467 125.706 30.02V23.66H127.326V34Z" fill="url(#paint25_linear_2002_563)"/>
<defs>
<linearGradient id="paint0_linear_2002_563" x1="26.0894" y1="55.9447" x2="26.0894" y2="3.76531" gradientUnits="userSpaceOnUse">
<stop offset="0.06" stop-color="#1932A7"/>
<stop offset="0.26" stop-color="#1833A8"/>
<stop offset="0.33" stop-color="#1838AF"/>
<stop offset="0.38" stop-color="#1740BB"/>
<stop offset="0.42" stop-color="#174CCC"/>
<stop offset="0.46" stop-color="#165CE1"/>
<stop offset="0.53" stop-color="#1662E2"/>
<stop offset="0.63" stop-color="#1975E6"/>
<stop offset="0.75" stop-color="#1D94EC"/>
<stop offset="0.88" stop-color="#24BFF6"/>
<stop offset="1" stop-color="#2AEAFF"/>
</linearGradient>
<linearGradient id="paint1_linear_2002_563" x1="9.16911" y1="49.8762" x2="26.011" y2="49.8762" gradientUnits="userSpaceOnUse">
<stop offset="0.11" stop-color="#230330"/>
<stop offset="0.29" stop-color="#4248BD"/>
<stop offset="0.65" stop-color="#BBCFFF"/>
</linearGradient>
<linearGradient id="paint2_linear_2002_563" x1="42.8314" y1="49.8762" x2="25.9895" y2="49.8762" gradientUnits="userSpaceOnUse">
<stop offset="0.11" stop-color="#230330"/>
<stop offset="0.29" stop-color="#4248BD"/>
<stop offset="0.65" stop-color="#BBCFFF"/>
</linearGradient>
<linearGradient id="paint3_linear_2002_563" x1="26.0003" y1="49.3886" x2="26.0003" y2="10.5194" gradientUnits="userSpaceOnUse">
<stop offset="0.35" stop-color="#BBCFFF"/>
<stop offset="0.53" stop-color="#694AB7"/>
<stop offset="0.7" stop-color="#381679"/>
<stop offset="1" stop-color="#3D1D7B"/>
</linearGradient>
<linearGradient id="paint4_linear_2002_563" x1="26.011" y1="44.1992" x2="26.011" y2="38.924" gradientUnits="userSpaceOnUse">
<stop offset="0.19" stop-color="#5C14E3" stop-opacity="0.75"/>
<stop offset="0.23" stop-color="#6D32E8" stop-opacity="0.7"/>
<stop offset="0.35" stop-color="#9D84F5" stop-opacity="0.55"/>
<stop offset="0.41" stop-color="#B0A4FB" stop-opacity="0.5"/>
<stop offset="0.69" stop-color="#F6F7FE" stop-opacity="0"/>
</linearGradient>
<linearGradient id="paint5_linear_2002_563" x1="18.0905" y1="27.8838" x2="16.6365" y2="30.402" gradientUnits="userSpaceOnUse">
<stop stop-color="#170024"/>
<stop offset="0.48" stop-color="#19003B"/>
<stop offset="0.72" stop-color="#1D1185"/>
<stop offset="1" stop-color="#131AAB"/>
</linearGradient>
<linearGradient id="paint6_linear_2002_563" x1="14.9121" y1="28.9908" x2="20.5219" y2="28.9908" gradientUnits="userSpaceOnUse">
<stop stop-color="#20229E"/>
<stop offset="0.04" stop-color="#3A5DB8"/>
<stop offset="0.08" stop-color="#AFFFFC"/>
<stop offset="0.81" stop-color="#7CFFFE"/>
<stop offset="0.9" stop-color="#22A8F0"/>
<stop offset="0.97" stop-color="#172FB2"/>
</linearGradient>
<linearGradient id="paint7_linear_2002_563" x1="33.91" y1="27.8838" x2="35.3641" y2="30.402" gradientUnits="userSpaceOnUse">
<stop stop-color="#170024"/>
<stop offset="0.48" stop-color="#19003B"/>
<stop offset="0.72" stop-color="#1D1185"/>
<stop offset="1" stop-color="#131AAB"/>
</linearGradient>
<linearGradient id="paint8_linear_2002_563" x1="37.0884" y1="28.9908" x2="31.4786" y2="28.9908" gradientUnits="userSpaceOnUse">
<stop stop-color="#20229E"/>
<stop offset="0.04" stop-color="#3A5DB8"/>
<stop offset="0.08" stop-color="#AFFFFC"/>
<stop offset="0.81" stop-color="#7CFFFE"/>
<stop offset="0.9" stop-color="#22A8F0"/>
<stop offset="0.97" stop-color="#172FB2"/>
</linearGradient>
<linearGradient id="paint9_linear_2002_563" x1="17.5544" y1="30.4053" x2="18.3547" y2="28.7716" gradientUnits="userSpaceOnUse">
<stop offset="0.09" stop-color="#B2BBFF"/>
<stop offset="0.85" stop-color="#0E09B7" stop-opacity="0.5"/>
</linearGradient>
<linearGradient id="paint10_linear_2002_563" x1="34.4467" y1="30.4053" x2="33.6464" y2="28.7716" gradientUnits="userSpaceOnUse">
<stop offset="0.09" stop-color="#B2BBFF"/>
<stop offset="0.85" stop-color="#0E09B7" stop-opacity="0.5"/>
</linearGradient>
<linearGradient id="paint11_linear_2002_563" x1="16.927" y1="11.3026" x2="22.0262" y2="16.4018" gradientUnits="userSpaceOnUse">
<stop offset="0.35" stop-color="#170222"/>
<stop offset="1" stop-color="#3D1D7B"/>
</linearGradient>
<linearGradient id="paint12_linear_2002_563" x1="35.0735" y1="11.3026" x2="29.9743" y2="16.4018" gradientUnits="userSpaceOnUse">
<stop offset="0.35" stop-color="#170222"/>
<stop offset="1" stop-color="#3D1D7B"/>
</linearGradient>
<radialGradient id="paint13_radial_2002_563" cx="0" cy="0" r="1" gradientUnits="userSpaceOnUse" gradientTransform="translate(17.7 12.7606) scale(1.15446)">
<stop stop-color="#0B3E7D"/>
<stop offset="1" stop-color="#011561"/>
</radialGradient>
<radialGradient id="paint14_radial_2002_563" cx="0" cy="0" r="1" gradientUnits="userSpaceOnUse" gradientTransform="translate(34.3017 12.7605) rotate(180) scale(1.15446)">
<stop stop-color="#0B3E7D"/>
<stop offset="1" stop-color="#011561"/>
</radialGradient>
<linearGradient id="paint15_linear_2002_563" x1="12.1506" y1="20.3662" x2="22.0527" y2="20.3662" gradientUnits="userSpaceOnUse">
<stop offset="0.31"/>
<stop offset="0.42" stop-color="#000103"/>
<stop offset="0.5" stop-color="#00040C"/>
<stop offset="0.57" stop-color="#020B1C"/>
<stop offset="0.64" stop-color="#031333"/>
<stop offset="0.71" stop-color="#061F51"/>
<stop offset="0.77" stop-color="#082C76"/>
<stop offset="0.83" stop-color="#0B3DA0"/>
<stop offset="0.85" stop-color="#0D43B0"/>
<stop offset="1" stop-color="#0D43B0"/>
</linearGradient>
<linearGradient id="paint16_linear_2002_563" x1="39.8499" y1="20.3662" x2="29.9478" y2="20.3662" gradientUnits="userSpaceOnUse">
<stop offset="0.31"/>
<stop offset="0.42" stop-color="#000103"/>
<stop offset="0.5" stop-color="#00040C"/>
<stop offset="0.57" stop-color="#020B1C"/>
<stop offset="0.64" stop-color="#031333"/>
<stop offset="0.71" stop-color="#061F51"/>
<stop offset="0.77" stop-color="#082C76"/>
<stop offset="0.83" stop-color="#0B3DA0"/>
<stop offset="0.85" stop-color="#0D43B0"/>
<stop offset="1" stop-color="#0D43B0"/>
</linearGradient>
<linearGradient id="paint17_linear_2002_563" x1="17.2808" y1="20.1055" x2="17.1025" y2="18.0674" gradientUnits="userSpaceOnUse">
<stop stop-color="#0D43B0"/>
<stop offset="0.15" stop-color="#0D43B0"/>
<stop offset="0.17" stop-color="#0B3DA0"/>
<stop offset="0.23" stop-color="#082C76"/>
<stop offset="0.29" stop-color="#061F51"/>
<stop offset="0.36" stop-color="#031333"/>
<stop offset="0.43" stop-color="#020B1C"/>
<stop offset="0.5" stop-color="#00040C"/>
<stop offset="0.58" stop-color="#000103"/>
<stop offset="0.69"/>
</linearGradient>
<linearGradient id="paint18_linear_2002_563" x1="34.7197" y1="20.1055" x2="34.898" y2="18.0674" gradientUnits="userSpaceOnUse">
<stop stop-color="#0D43B0"/>
<stop offset="0.15" stop-color="#0D43B0"/>
<stop offset="0.17" stop-color="#0B3DA0"/>
<stop offset="0.23" stop-color="#082C76"/>
<stop offset="0.29" stop-color="#061F51"/>
<stop offset="0.36" stop-color="#031333"/>
<stop offset="0.43" stop-color="#020B1C"/>
<stop offset="0.5" stop-color="#00040C"/>
<stop offset="0.58" stop-color="#000103"/>
<stop offset="0.69"/>
</linearGradient>
<radialGradient id="paint19_radial_2002_563" cx="0" cy="0" r="1" gradientUnits="userSpaceOnUse" gradientTransform="translate(26.0003 18.6881) scale(3.31387)">
<stop stop-color="#381679"/>
<stop offset="1" stop-color="#290851"/>
</radialGradient>
<linearGradient id="paint20_linear_2002_563" x1="25.423" y1="14.2328" x2="25.423" y2="13.3807" gradientUnits="userSpaceOnUse">
<stop stop-color="#0D43B0"/>
<stop offset="0.15" stop-color="#0D43B0"/>
<stop offset="0.36" stop-color="#09349C"/>
<stop offset="0.77" stop-color="#021B7C"/>
<stop offset="1" stop-color="#001270"/>
</linearGradient>
<linearGradient id="paint21_linear_2002_563" x1="26.5775" y1="14.2328" x2="26.5775" y2="13.3807" gradientUnits="userSpaceOnUse">
<stop stop-color="#0D43B0"/>
<stop offset="0.15" stop-color="#0D43B0"/>
<stop offset="0.36" stop-color="#09349C"/>
<stop offset="0.77" stop-color="#021B7C"/>
<stop offset="1" stop-color="#001270"/>
</linearGradient>
<linearGradient id="paint22_linear_2002_563" x1="15.732" y1="20.2224" x2="15.6428" y2="19.2033" gradientUnits="userSpaceOnUse">
<stop offset="0.12" stop-color="#0D43B0"/>
<stop offset="0.18" stop-color="#1D4FB5"/>
<stop offset="0.3" stop-color="#4971C3"/>
<stop offset="0.47" stop-color="#8FA8DA"/>
<stop offset="0.68" stop-color="#EFF2F9"/>
<stop offset="0.72" stop-color="white"/>
</linearGradient>
<linearGradient id="paint23_linear_2002_563" x1="36.2686" y1="20.2224" x2="36.3577" y2="19.2033" gradientUnits="userSpaceOnUse">
<stop offset="0.12" stop-color="#0D43B0"/>
<stop offset="0.18" stop-color="#1D4FB5"/>
<stop offset="0.3" stop-color="#4971C3"/>
<stop offset="0.47" stop-color="#8FA8DA"/>
<stop offset="0.68" stop-color="#EFF2F9"/>
<stop offset="0.72" stop-color="white"/>
</linearGradient>
<linearGradient id="paint24_linear_2002_563" x1="26.055" y1="29.8942" x2="26.055" y2="23.0215" gradientUnits="userSpaceOnUse">
<stop stop-color="#181B7D"/>
<stop offset="0.69" stop-color="#270D4A"/>
<stop offset="1" stop-color="#0D43B0"/>
</linearGradient>
<linearGradient id="paint25_linear_2002_563" x1="67.4837" y1="16" x2="130.036" y2="28.8213" gradientUnits="userSpaceOnUse">
<stop stop-color="#97F9FF"/>
<stop offset="1" stop-color="#2ABFFF"/>
</linearGradient>
<clipPath id="clip0_2002_563">
<rect width="52.1794" height="56" fill="white"/>
</clipPath>
</defs>
</svg>
