<svg width="32" height="32" viewBox="0 0 32 32" fill="none" xmlns="http://www.w3.org/2000/svg">
<g id="arbitrum-arb-logo 1" clip-path="url(#clip0_56_673)">
<g id="Layer_x0020_1">
<g id="_2405588477232">
<g id="Group">
<g id="Group_2">
<path id="Vector" d="M2.8928 9.72809V22.2721C2.8928 23.0785 3.3152 23.8081 4.0192 24.2177L14.8864 30.4897C15.5776 30.8865 16.4352 30.8865 17.1264 30.4897L27.9936 24.2177C28.6848 23.8209 29.12 23.0785 29.12 22.2721V9.72809C29.12 8.92169 28.6976 8.19209 27.9936 7.78249L17.1264 1.51049C16.4352 1.11369 15.5776 1.11369 14.8864 1.51049L4.0192 7.78249C3.328 8.17929 2.9056 8.92169 2.9056 9.72809H2.8928Z" fill="#213147"/>
<g id="Group_3">
<g id="Group_4">
<g id="Group_5">
<path id="Vector_2" d="M18.368 18.4318L16.8192 22.6814C16.7808 22.7966 16.7808 22.9246 16.8192 23.0526L19.4816 30.3614L22.5664 28.5822L18.8672 18.4318C18.7776 18.2014 18.4576 18.2014 18.368 18.4318Z" fill="#12AAFF"/>
</g>
<g id="Group_6">
<path id="Vector_3" d="M21.4784 11.2895C21.3888 11.0591 21.0688 11.0591 20.9792 11.2895L19.4304 15.5391C19.392 15.6543 19.392 15.7823 19.4304 15.9103L23.7952 27.8783L26.88 26.0991L21.4784 11.3023V11.2895Z" fill="#12AAFF"/>
</g>
</g>
</g>
<g id="Group_7">
<path id="Vector_4" d="M16 1.984C16.0768 1.984 16.1536 2.0096 16.2176 2.048L27.968 8.832C28.1088 8.9088 28.1856 9.0624 28.1856 9.216V22.784C28.1856 22.9376 28.096 23.0912 27.968 23.168L16.2176 29.952C16.1536 29.9904 16.0768 30.016 16 30.016C15.9232 30.016 15.8464 29.9904 15.7824 29.952L4.032 23.168C3.8912 23.0912 3.8144 22.9376 3.8144 22.784V9.2032C3.8144 9.0496 3.904 8.896 4.032 8.8192L15.7824 2.0352C15.8464 1.9968 15.9232 1.9712 16 1.9712V1.984ZM16 0C15.5776 0 15.168 0.1024 14.784 0.32L3.0336 7.104C2.2784 7.5392 1.8176 8.3328 1.8176 9.2032V22.7712C1.8176 23.6416 2.2784 24.4352 3.0336 24.8704L14.784 31.6544C15.1552 31.872 15.5776 31.9744 16 31.9744C16.4224 31.9744 16.832 31.872 17.216 31.6544L28.9664 24.8704C29.7216 24.4352 30.1824 23.6416 30.1824 22.7712V9.2032C30.1824 8.3328 29.7216 7.5392 28.9664 7.104L17.2032 0.32C16.832 0.1024 16.4096 0 15.9872 0H16Z" fill="#9DCCED"/>
</g>
<path id="Vector_5" d="M8.2176 27.8912L9.3056 24.9216L11.4816 26.7264L9.4464 28.5952L8.2176 27.8912Z" fill="#213147"/>
<g id="Group_8">
<path id="Vector_6" d="M15.0016 8.24327H12.0192C11.8016 8.24327 11.5968 8.38407 11.52 8.58887L5.1328 26.0993L8.2176 27.8785L15.2576 8.58887C15.3216 8.40967 15.1936 8.23047 15.0144 8.23047L15.0016 8.24327Z" fill="white"/>
<path id="Vector_7" d="M20.224 8.24327H17.2416C17.024 8.24327 16.8192 8.38407 16.7424 8.58887L9.4464 28.5825L12.5312 30.3617L20.4672 8.58887C20.5312 8.40967 20.4032 8.23047 20.224 8.23047V8.24327Z" fill="white"/>
</g>
</g>
</g>
</g>
</g>
</g>
<defs>
<clipPath id="clip0_56_673">
<rect width="32" height="32" fill="white"/>
</clipPath>
</defs>
</svg>
